<?xml version="1.0" encoding="utf-8" standalone="no"?>
<!DOCTYPE svg PUBLIC "-//W3C//DTD SVG 1.1//EN"
  "http://www.w3.org/Graphics/SVG/1.1/DTD/svg11.dtd">
<svg xmlns:xlink="http://www.w3.org/1999/xlink" width="170.07874pt" height="170.07874pt" viewBox="0 0 170.07874 170.07874" xmlns="http://www.w3.org/2000/svg" version="1.1">
 <metadata>
  <rdf:RDF xmlns:dc="http://purl.org/dc/elements/1.1/" xmlns:cc="http://creativecommons.org/ns#" xmlns:rdf="http://www.w3.org/1999/02/22-rdf-syntax-ns#">
   <cc:Work>
    <dc:type rdf:resource="http://purl.org/dc/dcmitype/StillImage"/>
    <dc:date>2026-03-16T22:51:02.088062</dc:date>
    <dc:format>image/svg+xml</dc:format>
    <dc:creator>
     <cc:Agent>
      <dc:title>Matplotlib v3.7.2, https://matplotlib.org/</dc:title>
     </cc:Agent>
    </dc:creator>
   </cc:Work>
  </rdf:RDF>
 </metadata>
 <defs>
  <style type="text/css">*{stroke-linejoin: round; stroke-linecap: butt}</style>
 </defs>
 <g id="figure_1">
  <g id="patch_1">
   <path d="M 0 170.07874 
L 170.07874 170.07874 
L 170.07874 0 
L 0 0 
z
" style="fill: #ffffff"/>
  </g>
  <g id="patch_2">
   <path d="M 20.409449 153.070866 
L 166.677165 153.070866 
L 166.677165 6.80315 
L 20.409449 6.80315 
z
" style="fill: #ffffff"/>
  </g>
  <g id="axes_1">
   <g id="line2d_1">
    <path d="M 63.078479 122.810813 
L 112.265283 94.153837 
L 112.265283 94.153837 
" clip-path="url(#p95f62c3be4)" style="fill: none; stroke-dasharray: 2.96,1.28; stroke-dashoffset: 0; stroke: #000000; stroke-opacity: 0.5; stroke-width: 0.8"/>
   </g>
   <g id="line2d_2">
    <path d="M 47.210671 70.185085 
L 104.071454 40.285301 
L 104.071454 40.285301 
" clip-path="url(#p95f62c3be4)" style="fill: none; stroke-dasharray: 2.96,1.28; stroke-dashoffset: 0; stroke: #000000; stroke-opacity: 0.5; stroke-width: 0.8"/>
   </g>
   <g id="line2d_3">
    <path d="M 62.266144 100.340031 
L 112.977088 54.7897 
L 112.977088 54.7897 
" clip-path="url(#p95f62c3be4)" style="fill: none; stroke: #000000; stroke-opacity: 0.9; stroke-linecap: square"/>
   </g>
   <g id="Path3DCollection_1">
    <defs>
     <path id="C0_0_c539f2ce57" d="M -1.414214 1.414214 
L 1.414214 1.414214 
L 1.414214 -1.414214 
L -1.414214 -1.414214 
z
"/>
    </defs>
    <g clip-path="url(#p95f62c3be4)">
     <use xlink:href="#C0_0_c539f2ce57" x="104.98705" y="41.261444" style="fill: #808080; fill-opacity: 0.5"/>
    </g>
    <g clip-path="url(#p95f62c3be4)">
     <use xlink:href="#C0_0_c539f2ce57" x="100.732518" y="42.320182" style="fill: #808080; fill-opacity: 0.5"/>
    </g>
    <g clip-path="url(#p95f62c3be4)">
     <use xlink:href="#C0_0_c539f2ce57" x="65.070279" y="62.053053" style="fill: #808080; fill-opacity: 0.5"/>
    </g>
    <g clip-path="url(#p95f62c3be4)">
     <use xlink:href="#C0_0_c539f2ce57" x="69.400085" y="59.217127" style="fill: #808080; fill-opacity: 0.5"/>
    </g>
    <g clip-path="url(#p95f62c3be4)">
     <use xlink:href="#C0_0_c539f2ce57" x="86.735738" y="48.949089" style="fill: #808080; fill-opacity: 0.5"/>
    </g>
    <g clip-path="url(#p95f62c3be4)">
     <use xlink:href="#C0_0_c539f2ce57" x="91.645839" y="45.942493" style="fill: #808080; fill-opacity: 0.5"/>
    </g>
    <g clip-path="url(#p95f62c3be4)">
     <use xlink:href="#C0_0_c539f2ce57" x="95.796767" y="43.572278" style="fill: #808080; fill-opacity: 0.5"/>
    </g>
    <g clip-path="url(#p95f62c3be4)">
     <use xlink:href="#C0_0_c539f2ce57" x="55.852281" y="66.040756" style="fill: #808080; fill-opacity: 0.5"/>
    </g>
    <g clip-path="url(#p95f62c3be4)">
     <use xlink:href="#C0_0_c539f2ce57" x="73.485965" y="56.041284" style="fill: #808080; fill-opacity: 0.5"/>
    </g>
    <g clip-path="url(#p95f62c3be4)">
     <use xlink:href="#C0_0_c539f2ce57" x="79.780746" y="52.465491" style="fill: #808080; fill-opacity: 0.5"/>
    </g>
    <g clip-path="url(#p95f62c3be4)">
     <use xlink:href="#C0_0_c539f2ce57" x="46.670545" y="69.678101" style="fill: #808080; fill-opacity: 0.5"/>
    </g>
   </g>
   <g id="text_1">
    <!-- 5 -->
    <g transform="translate(58.086944 161.590847) scale(0.07 -0.07)">
     <defs>
      <path id="ArialMT-35" d="M 266 1200 
L 856 1250 
Q 922 819 1161 601 
Q 1400 384 1738 384 
Q 2144 384 2425 690 
Q 2706 997 2706 1503 
Q 2706 1984 2436 2262 
Q 2166 2541 1728 2541 
Q 1456 2541 1237 2417 
Q 1019 2294 894 2097 
L 366 2166 
L 809 4519 
L 3088 4519 
L 3088 3981 
L 1259 3981 
L 1013 2750 
Q 1425 3038 1878 3038 
Q 2478 3038 2890 2622 
Q 3303 2206 3303 1553 
Q 3303 931 2941 478 
Q 2500 -78 1738 -78 
Q 1113 -78 717 272 
Q 322 622 266 1200 
z
" transform="scale(0.015625)"/>
     </defs>
     <use xlink:href="#ArialMT-35"/>
    </g>
   </g>
   <g id="text_2">
    <!-- 6 -->
    <g transform="translate(111.032724 147.907193) scale(0.07 -0.07)">
     <defs>
      <path id="ArialMT-36" d="M 3184 3459 
L 2625 3416 
Q 2550 3747 2413 3897 
Q 2184 4138 1850 4138 
Q 1581 4138 1378 3988 
Q 1113 3794 959 3422 
Q 806 3050 800 2363 
Q 1003 2672 1297 2822 
Q 1591 2972 1913 2972 
Q 2475 2972 2870 2558 
Q 3266 2144 3266 1488 
Q 3266 1056 3080 686 
Q 2894 316 2569 119 
Q 2244 -78 1831 -78 
Q 1128 -78 684 439 
Q 241 956 241 2144 
Q 241 3472 731 4075 
Q 1159 4600 1884 4600 
Q 2425 4600 2770 4297 
Q 3116 3994 3184 3459 
z
M 888 1484 
Q 888 1194 1011 928 
Q 1134 663 1356 523 
Q 1578 384 1822 384 
Q 2178 384 2434 671 
Q 2691 959 2691 1453 
Q 2691 1928 2437 2201 
Q 2184 2475 1800 2475 
Q 1419 2475 1153 2201 
Q 888 1928 888 1484 
z
" transform="scale(0.015625)"/>
     </defs>
     <use xlink:href="#ArialMT-36"/>
    </g>
   </g>
   <g id="text_3">
    <!-- 7 -->
    <g transform="translate(162.061165 134.719069) scale(0.07 -0.07)">
     <defs>
      <path id="ArialMT-37" d="M 303 3981 
L 303 4522 
L 3269 4522 
L 3269 4084 
Q 2831 3619 2401 2847 
Q 1972 2075 1738 1259 
Q 1569 684 1522 0 
L 944 0 
Q 953 541 1156 1306 
Q 1359 2072 1739 2783 
Q 2119 3494 2547 3981 
L 303 3981 
z
" transform="scale(0.015625)"/>
     </defs>
     <use xlink:href="#ArialMT-37"/>
    </g>
   </g>
   <g id="text_4">
    <!-- 7 -->
    <g transform="translate(47.100844 155.717858) scale(0.07 -0.07)">
     <use xlink:href="#ArialMT-37"/>
    </g>
   </g>
   <g id="text_5">
    <!-- 8 -->
    <g transform="translate(29.880009 117.265747) scale(0.07 -0.07)">
     <defs>
      <path id="ArialMT-38" d="M 1131 2484 
Q 781 2613 612 2850 
Q 444 3088 444 3419 
Q 444 3919 803 4259 
Q 1163 4600 1759 4600 
Q 2359 4600 2725 4251 
Q 3091 3903 3091 3403 
Q 3091 3084 2923 2848 
Q 2756 2613 2416 2484 
Q 2838 2347 3058 2040 
Q 3278 1734 3278 1309 
Q 3278 722 2862 322 
Q 2447 -78 1769 -78 
Q 1091 -78 675 323 
Q 259 725 259 1325 
Q 259 1772 486 2073 
Q 713 2375 1131 2484 
z
M 1019 3438 
Q 1019 3113 1228 2906 
Q 1438 2700 1772 2700 
Q 2097 2700 2305 2904 
Q 2513 3109 2513 3406 
Q 2513 3716 2298 3927 
Q 2084 4138 1766 4138 
Q 1444 4138 1231 3931 
Q 1019 3725 1019 3438 
z
M 838 1322 
Q 838 1081 952 856 
Q 1066 631 1291 507 
Q 1516 384 1775 384 
Q 2178 384 2440 643 
Q 2703 903 2703 1303 
Q 2703 1709 2433 1975 
Q 2163 2241 1756 2241 
Q 1359 2241 1098 1978 
Q 838 1716 838 1322 
z
" transform="scale(0.015625)"/>
     </defs>
     <use xlink:href="#ArialMT-38"/>
    </g>
   </g>
   <g id="text_6">
    <!-- 8 -->
    <g transform="translate(21.607339 95.30701) scale(0.07 -0.07)">
     <use xlink:href="#ArialMT-38"/>
    </g>
   </g>
   <g id="text_7">
    <!-- 9 -->
    <g transform="translate(18.619776 55.766906) scale(0.07 -0.07)">
     <defs>
      <path id="ArialMT-39" d="M 350 1059 
L 891 1109 
Q 959 728 1153 556 
Q 1347 384 1650 384 
Q 1909 384 2104 503 
Q 2300 622 2425 820 
Q 2550 1019 2634 1356 
Q 2719 1694 2719 2044 
Q 2719 2081 2716 2156 
Q 2547 1888 2255 1720 
Q 1963 1553 1622 1553 
Q 1053 1553 659 1965 
Q 266 2378 266 3053 
Q 266 3750 677 4175 
Q 1088 4600 1706 4600 
Q 2153 4600 2523 4359 
Q 2894 4119 3086 3673 
Q 3278 3228 3278 2384 
Q 3278 1506 3087 986 
Q 2897 466 2520 194 
Q 2144 -78 1638 -78 
Q 1100 -78 759 220 
Q 419 519 350 1059 
z
M 2653 3081 
Q 2653 3566 2395 3850 
Q 2138 4134 1775 4134 
Q 1400 4134 1122 3828 
Q 844 3522 844 3034 
Q 844 2597 1108 2323 
Q 1372 2050 1759 2050 
Q 2150 2050 2401 2323 
Q 2653 2597 2653 3081 
z
" transform="scale(0.015625)"/>
     </defs>
     <use xlink:href="#ArialMT-39"/>
    </g>
   </g>
   <g id="Path3DCollection_2">
    <defs>
     <path id="C1_0_b06c016f28" d="M -1.414214 1.414214 
L 1.414214 1.414214 
L 1.414214 -1.414214 
L -1.414214 -1.414214 
z
"/>
    </defs>
    <g clip-path="url(#p95f62c3be4)">
     <use xlink:href="#C1_0_b06c016f28" x="113.71239" y="94.86775" style="fill: #808080; fill-opacity: 0.5"/>
    </g>
    <g clip-path="url(#p95f62c3be4)">
     <use xlink:href="#C1_0_b06c016f28" x="109.610526" y="95.999427" style="fill: #808080; fill-opacity: 0.5"/>
    </g>
    <g clip-path="url(#p95f62c3be4)">
     <use xlink:href="#C1_0_b06c016f28" x="104.859034" y="97.330782" style="fill: #808080; fill-opacity: 0.5"/>
    </g>
    <g clip-path="url(#p95f62c3be4)">
     <use xlink:href="#C1_0_b06c016f28" x="101.452825" y="99.525244" style="fill: #808080; fill-opacity: 0.5"/>
    </g>
    <g clip-path="url(#p95f62c3be4)">
     <use xlink:href="#C1_0_b06c016f28" x="97.480405" y="102.298571" style="fill: #808080; fill-opacity: 0.5"/>
    </g>
    <g clip-path="url(#p95f62c3be4)">
     <use xlink:href="#C1_0_b06c016f28" x="91.470743" y="105.639524" style="fill: #808080; fill-opacity: 0.5"/>
    </g>
    <g clip-path="url(#p95f62c3be4)">
     <use xlink:href="#C1_0_b06c016f28" x="86.134671" y="108.990747" style="fill: #808080; fill-opacity: 0.5"/>
    </g>
    <g clip-path="url(#p95f62c3be4)">
     <use xlink:href="#C1_0_b06c016f28" x="82.999162" y="111.917025" style="fill: #808080; fill-opacity: 0.5"/>
    </g>
    <g clip-path="url(#p95f62c3be4)">
     <use xlink:href="#C1_0_b06c016f28" x="79.458526" y="114.657901" style="fill: #808080; fill-opacity: 0.5"/>
    </g>
    <g clip-path="url(#p95f62c3be4)">
     <use xlink:href="#C1_0_b06c016f28" x="70.967861" y="118.67564" style="fill: #808080; fill-opacity: 0.5"/>
    </g>
    <g clip-path="url(#p95f62c3be4)">
     <use xlink:href="#C1_0_b06c016f28" x="62.30292" y="122.400931" style="fill: #808080; fill-opacity: 0.5"/>
    </g>
   </g>
   <g id="Poly3DCollection_1">
    <path d="M 112.663077 57.255773 
L 115.183246 56.681092 
L 115.229364 54.42126 
L 112.703321 54.995262 
z
" clip-path="url(#p95f62c3be4)" style="fill: #1f77b4; fill-opacity: 0.5"/>
    <path d="M 113.695998 58.945897 
L 116.221862 58.368191 
L 115.183246 56.681092 
L 112.663077 57.255773 
z
" clip-path="url(#p95f62c3be4)" style="fill: #1f77b4; fill-opacity: 0.5"/>
    <path d="M 116.221862 58.368191 
L 115.183246 56.681092 
L 115.229364 54.42126 
L 116.270544 56.106375 
z
" clip-path="url(#p95f62c3be4)" style="fill: #1f77b4; fill-opacity: 0.5"/>
    <path d="M 108.396989 58.4829 
L 110.925026 57.906198 
L 110.961216 55.645605 
L 108.427266 56.221632 
z
" clip-path="url(#p95f62c3be4)" style="fill: #1f77b4; fill-opacity: 0.5"/>
    <path d="M 109.420338 60.178981 
L 111.95411 59.599238 
L 110.925026 57.906198 
L 108.396989 58.4829 
z
" clip-path="url(#p95f62c3be4)" style="fill: #1f77b4; fill-opacity: 0.5"/>
    <path d="M 113.695998 58.945897 
L 112.663077 57.255773 
L 112.703321 54.995262 
L 113.738779 56.683406 
z
" clip-path="url(#p95f62c3be4)" style="fill: #1f77b4; fill-opacity: 0.5"/>
    <path d="M 111.95411 59.599238 
L 110.925026 57.906198 
L 110.961216 55.645605 
L 111.992818 57.336669 
z
" clip-path="url(#p95f62c3be4)" style="fill: #1f77b4; fill-opacity: 0.5"/>
    <path d="M 113.738779 56.683406 
L 116.270544 56.106375 
L 115.229364 54.42126 
L 112.703321 54.995262 
z
" clip-path="url(#p95f62c3be4)" style="fill: #1f77b4; fill-opacity: 0.5"/>
    <path d="M 113.695998 58.945897 
L 116.221862 58.368191 
L 116.270544 56.106375 
L 113.738779 56.683406 
z
" clip-path="url(#p95f62c3be4)" style="fill: #1f77b4; fill-opacity: 0.5"/>
    <path d="M 109.420338 60.178981 
L 108.396989 58.4829 
L 108.427266 56.221632 
L 109.453108 57.915741 
z
" clip-path="url(#p95f62c3be4)" style="fill: #1f77b4; fill-opacity: 0.5"/>
    <path d="M 103.455611 59.948546 
L 105.992793 59.369453 
L 106.017441 57.108082 
L 103.474305 57.686503 
z
" clip-path="url(#p95f62c3be4)" style="fill: #1f77b4; fill-opacity: 0.5"/>
    <path d="M 104.467835 61.651666 
L 107.010795 61.069514 
L 105.992793 59.369453 
L 103.455611 59.948546 
z
" clip-path="url(#p95f62c3be4)" style="fill: #1f77b4; fill-opacity: 0.5"/>
    <path d="M 109.453108 57.915741 
L 111.992818 57.336669 
L 110.961216 55.645605 
L 108.427266 56.221632 
z
" clip-path="url(#p95f62c3be4)" style="fill: #1f77b4; fill-opacity: 0.5"/>
    <path d="M 109.420338 60.178981 
L 111.95411 59.599238 
L 111.992818 57.336669 
L 109.453108 57.915741 
z
" clip-path="url(#p95f62c3be4)" style="fill: #1f77b4; fill-opacity: 0.5"/>
    <path d="M 107.010795 61.069514 
L 105.992793 59.369453 
L 106.017441 57.108082 
L 107.037911 58.806178 
z
" clip-path="url(#p95f62c3be4)" style="fill: #1f77b4; fill-opacity: 0.5"/>
    <path d="M 104.467835 61.651666 
L 103.455611 59.948546 
L 103.474305 57.686503 
L 104.488969 59.387662 
z
" clip-path="url(#p95f62c3be4)" style="fill: #1f77b4; fill-opacity: 0.5"/>
    <path d="M 99.904757 63.561367 
L 102.449728 62.977978 
L 102.466067 60.721008 
L 99.915105 61.303738 
z
" clip-path="url(#p95f62c3be4)" style="fill: #1f77b4; fill-opacity: 0.5"/>
    <path d="M 100.909434 65.277134 
L 103.460221 64.690658 
L 102.449728 62.977978 
L 99.904757 63.561367 
z
" clip-path="url(#p95f62c3be4)" style="fill: #1f77b4; fill-opacity: 0.5"/>
    <path d="M 104.488969 59.387662 
L 107.037911 58.806178 
L 106.017441 57.108082 
L 103.474305 57.686503 
z
" clip-path="url(#p95f62c3be4)" style="fill: #1f77b4; fill-opacity: 0.5"/>
    <path d="M 104.467835 61.651666 
L 107.010795 61.069514 
L 107.037911 58.806178 
L 104.488969 59.387662 
z
" clip-path="url(#p95f62c3be4)" style="fill: #1f77b4; fill-opacity: 0.5"/>
    <path d="M 103.460221 64.690658 
L 102.449728 62.977978 
L 102.466067 60.721008 
L 103.478993 62.431761 
z
" clip-path="url(#p95f62c3be4)" style="fill: #1f77b4; fill-opacity: 0.5"/>
    <path d="M 100.909434 65.277134 
L 99.904757 63.561367 
L 99.915105 61.303738 
L 100.922187 63.017583 
z
" clip-path="url(#p95f62c3be4)" style="fill: #1f77b4; fill-opacity: 0.5"/>
    <path d="M 95.775534 68.212589 
L 98.329756 67.623742 
L 98.336396 65.372832 
L 95.776139 65.961038 
z
" clip-path="url(#p95f62c3be4)" style="fill: #1f77b4; fill-opacity: 0.5"/>
    <path d="M 96.771463 69.944422 
L 99.331547 69.352452 
L 98.329756 67.623742 
L 95.775534 68.212589 
z
" clip-path="url(#p95f62c3be4)" style="fill: #1f77b4; fill-opacity: 0.5"/>
    <path d="M 100.922187 63.017583 
L 103.478993 62.431761 
L 102.466067 60.721008 
L 99.915105 61.303738 
z
" clip-path="url(#p95f62c3be4)" style="fill: #1f77b4; fill-opacity: 0.5"/>
    <path d="M 100.909434 65.277134 
L 103.460221 64.690658 
L 103.478993 62.431761 
L 100.922187 63.017583 
z
" clip-path="url(#p95f62c3be4)" style="fill: #1f77b4; fill-opacity: 0.5"/>
    <path d="M 99.331547 69.352452 
L 98.329756 67.623742 
L 98.336396 65.372832 
L 99.340577 67.099666 
z
" clip-path="url(#p95f62c3be4)" style="fill: #1f77b4; fill-opacity: 0.5"/>
    <path d="M 96.771463 69.944422 
L 95.775534 68.212589 
L 95.776139 65.961038 
L 96.774431 67.690998 
z
" clip-path="url(#p95f62c3be4)" style="fill: #1f77b4; fill-opacity: 0.5"/>
    <path d="M 96.774431 67.690998 
L 99.340577 67.099666 
L 98.336396 65.372832 
L 95.776139 65.961038 
z
" clip-path="url(#p95f62c3be4)" style="fill: #1f77b4; fill-opacity: 0.5"/>
    <path d="M 96.771463 69.944422 
L 99.331547 69.352452 
L 99.340577 67.099666 
L 96.774431 67.690998 
z
" clip-path="url(#p95f62c3be4)" style="fill: #1f77b4; fill-opacity: 0.5"/>
    <path d="M 89.554633 73.474705 
L 92.121982 72.879373 
L 92.113929 70.634288 
L 89.540483 71.228997 
z
" clip-path="url(#p95f62c3be4)" style="fill: #1f77b4; fill-opacity: 0.5"/>
    <path d="M 90.536969 75.225627 
L 93.110243 74.627129 
L 92.121982 72.879373 
L 89.554633 73.474705 
z
" clip-path="url(#p95f62c3be4)" style="fill: #1f77b4; fill-opacity: 0.5"/>
    <path d="M 93.110243 74.627129 
L 92.121982 72.879373 
L 92.113929 70.634288 
L 93.104518 72.380223 
z
" clip-path="url(#p95f62c3be4)" style="fill: #1f77b4; fill-opacity: 0.5"/>
    <path d="M 90.536969 75.225627 
L 89.554633 73.474705 
L 89.540483 71.228997 
L 90.525118 72.978103 
z
" clip-path="url(#p95f62c3be4)" style="fill: #1f77b4; fill-opacity: 0.5"/>
    <path d="M 90.525118 72.978103 
L 93.104518 72.380223 
L 92.113929 70.634288 
L 89.540483 71.228997 
z
" clip-path="url(#p95f62c3be4)" style="fill: #1f77b4; fill-opacity: 0.5"/>
    <path d="M 90.536969 75.225627 
L 93.110243 74.627129 
L 93.104518 72.380223 
L 90.525118 72.978103 
z
" clip-path="url(#p95f62c3be4)" style="fill: #1f77b4; fill-opacity: 0.5"/>
    <path d="M 84.05505 78.952307 
L 86.634298 78.350409 
L 86.613183 76.112262 
L 84.027781 76.713557 
z
" clip-path="url(#p95f62c3be4)" style="fill: #1f77b4; fill-opacity: 0.5"/>
    <path d="M 85.025389 80.722558 
L 87.610622 80.11745 
L 86.634298 78.350409 
L 84.05505 78.952307 
z
" clip-path="url(#p95f62c3be4)" style="fill: #1f77b4; fill-opacity: 0.5"/>
    <path d="M 87.610622 80.11745 
L 86.634298 78.350409 
L 86.613183 76.112262 
L 87.591777 77.877541 
z
" clip-path="url(#p95f62c3be4)" style="fill: #1f77b4; fill-opacity: 0.5"/>
    <path d="M 85.025389 80.722558 
L 84.05505 78.952307 
L 84.027781 76.713557 
L 85.000362 78.482051 
z
" clip-path="url(#p95f62c3be4)" style="fill: #1f77b4; fill-opacity: 0.5"/>
    <path d="M 80.847048 84.105303 
L 83.434162 83.497572 
L 83.405387 81.267371 
L 80.812082 81.874519 
z
" clip-path="url(#p95f62c3be4)" style="fill: #1f77b4; fill-opacity: 0.5"/>
    <path d="M 81.810694 85.892724 
L 84.403831 85.281745 
L 83.434162 83.497572 
L 80.847048 84.105303 
z
" clip-path="url(#p95f62c3be4)" style="fill: #1f77b4; fill-opacity: 0.5"/>
    <path d="M 85.000362 78.482051 
L 87.591777 77.877541 
L 86.613183 76.112262 
L 84.027781 76.713557 
z
" clip-path="url(#p95f62c3be4)" style="fill: #1f77b4; fill-opacity: 0.5"/>
    <path d="M 85.025389 80.722558 
L 87.610622 80.11745 
L 87.591777 77.877541 
L 85.000362 78.482051 
z
" clip-path="url(#p95f62c3be4)" style="fill: #1f77b4; fill-opacity: 0.5"/>
    <path d="M 84.403831 85.281745 
L 83.434162 83.497572 
L 83.405387 81.267371 
L 84.377294 83.04984 
z
" clip-path="url(#p95f62c3be4)" style="fill: #1f77b4; fill-opacity: 0.5"/>
    <path d="M 81.810694 85.892724 
L 80.847048 84.105303 
L 80.812082 81.874519 
L 81.777937 83.660241 
z
" clip-path="url(#p95f62c3be4)" style="fill: #1f77b4; fill-opacity: 0.5"/>
    <path d="M 77.230975 88.678351 
L 79.826649 88.065222 
L 79.789208 85.841364 
L 77.187302 86.453927 
z
" clip-path="url(#p95f62c3be4)" style="fill: #1f77b4; fill-opacity: 0.5"/>
    <path d="M 78.186918 90.481658 
L 80.788657 89.865247 
L 79.826649 88.065222 
L 77.230975 88.678351 
z
" clip-path="url(#p95f62c3be4)" style="fill: #1f77b4; fill-opacity: 0.5"/>
    <path d="M 81.777937 83.660241 
L 84.377294 83.04984 
L 83.405387 81.267371 
L 80.812082 81.874519 
z
" clip-path="url(#p95f62c3be4)" style="fill: #1f77b4; fill-opacity: 0.5"/>
    <path d="M 81.810694 85.892724 
L 84.403831 85.281745 
L 84.377294 83.04984 
L 81.777937 83.660241 
z
" clip-path="url(#p95f62c3be4)" style="fill: #1f77b4; fill-opacity: 0.5"/>
    <path d="M 80.788657 89.865247 
L 79.826649 88.065222 
L 79.789208 85.841364 
L 80.753418 87.639736 
z
" clip-path="url(#p95f62c3be4)" style="fill: #1f77b4; fill-opacity: 0.5"/>
    <path d="M 78.186918 90.481658 
L 77.230975 88.678351 
L 77.187302 86.453927 
L 78.145417 88.255588 
z
" clip-path="url(#p95f62c3be4)" style="fill: #1f77b4; fill-opacity: 0.5"/>
    <path d="M 78.145417 88.255588 
L 80.753418 87.639736 
L 79.789208 85.841364 
L 77.187302 86.453927 
z
" clip-path="url(#p95f62c3be4)" style="fill: #1f77b4; fill-opacity: 0.5"/>
    <path d="M 78.186918 90.481658 
L 80.788657 89.865247 
L 80.753418 87.639736 
L 78.145417 88.255588 
z
" clip-path="url(#p95f62c3be4)" style="fill: #1f77b4; fill-opacity: 0.5"/>
    <path d="M 68.550988 94.558525 
L 71.164515 93.937683 
L 71.106186 91.719362 
L 68.486341 92.33966 
z
" clip-path="url(#p95f62c3be4)" style="fill: #1f77b4; fill-opacity: 0.5"/>
    <path d="M 69.487293 96.384544 
L 72.106974 95.760365 
L 71.164515 93.937683 
L 68.550988 94.558525 
z
" clip-path="url(#p95f62c3be4)" style="fill: #1f77b4; fill-opacity: 0.5"/>
    <path d="M 72.106974 95.760365 
L 71.164515 93.937683 
L 71.106186 91.719362 
L 72.050751 93.540455 
z
" clip-path="url(#p95f62c3be4)" style="fill: #1f77b4; fill-opacity: 0.5"/>
    <path d="M 69.487293 96.384544 
L 68.550988 94.558525 
L 68.486341 92.33966 
L 69.424723 94.164096 
z
" clip-path="url(#p95f62c3be4)" style="fill: #1f77b4; fill-opacity: 0.5"/>
    <path d="M 69.424723 94.164096 
L 72.050751 93.540455 
L 71.106186 91.719362 
L 68.486341 92.33966 
z
" clip-path="url(#p95f62c3be4)" style="fill: #1f77b4; fill-opacity: 0.5"/>
    <path d="M 69.487293 96.384544 
L 72.106974 95.760365 
L 72.050751 93.540455 
L 69.424723 94.164096 
z
" clip-path="url(#p95f62c3be4)" style="fill: #1f77b4; fill-opacity: 0.5"/>
    <path d="M 59.714041 99.801781 
L 62.345403 99.173821 
L 62.265656 96.959802 
L 59.62789 97.587237 
z
" clip-path="url(#p95f62c3be4)" style="fill: #1f77b4; fill-opacity: 0.5"/>
    <path d="M 60.630029 101.648761 
L 63.267635 101.017412 
L 62.345403 99.173821 
L 59.714041 99.801781 
z
" clip-path="url(#p95f62c3be4)" style="fill: #1f77b4; fill-opacity: 0.5"/>
    <path d="M 63.267635 101.017412 
L 62.345403 99.173821 
L 62.265656 96.959802 
L 63.189896 98.801861 
z
" clip-path="url(#p95f62c3be4)" style="fill: #1f77b4; fill-opacity: 0.5"/>
    <path d="M 60.630029 101.648761 
L 59.714041 99.801781 
L 59.62789 97.587237 
L 60.545855 99.432689 
z
" clip-path="url(#p95f62c3be4)" style="fill: #1f77b4; fill-opacity: 0.5"/>
    <path d="M 60.545855 99.432689 
L 63.189896 98.801861 
L 62.265656 96.959802 
L 59.62789 97.587237 
z
" clip-path="url(#p95f62c3be4)" style="fill: #1f77b4; fill-opacity: 0.5"/>
    <path d="M 60.630029 101.648761 
L 63.267635 101.017412 
L 63.189896 98.801861 
L 60.545855 99.432689 
z
" clip-path="url(#p95f62c3be4)" style="fill: #1f77b4; fill-opacity: 0.5"/>
   </g>
   <g id="Line3DCollection_1">
    <path d="M 32.334969 96.159277 
L 57.134158 90.328142 
L 81.512642 84.59593 
L 105.481036 78.960143 
L 129.049602 73.41837 
" clip-path="url(#p95f62c3be4)" style="fill: none; stroke: #000000; stroke-opacity: 0.22; stroke-width: 0.2"/>
    <path d="M 30.875268 74.811944 
L 56.255129 69.034081 
L 81.19466 63.356461 
L 105.705222 57.776499 
L 129.797788 52.291696 
" clip-path="url(#p95f62c3be4)" style="fill: none; stroke: #000000; stroke-opacity: 0.22; stroke-width: 0.2"/>
    <path d="M 29.346527 52.454951 
L 55.334896 46.741899 
L 80.861905 41.130269 
L 105.939731 35.617383 
L 130.580125 30.200658 
" clip-path="url(#p95f62c3be4)" style="fill: none; stroke: #000000; stroke-opacity: 0.22; stroke-width: 0.2"/>
    <path d="M 27.74373 29.014933 
L 54.370495 23.379735 
L 80.513324 17.846956 
L 106.185293 12.413828 
L 131.399008 7.077683 
" clip-path="url(#p95f62c3be4)" style="fill: none; stroke: #000000; stroke-opacity: 0.22; stroke-width: 0.2"/>
    <path d="M 32.334969 96.159277 
L 30.875268 74.811944 
L 29.346527 52.454951 
L 27.74373 29.014933 
" clip-path="url(#p95f62c3be4)" style="fill: none; stroke: #000000; stroke-opacity: 0.22; stroke-width: 0.2"/>
    <path d="M 57.134158 90.328142 
L 56.255129 69.034081 
L 55.334896 46.741899 
L 54.370495 23.379735 
" clip-path="url(#p95f62c3be4)" style="fill: none; stroke: #000000; stroke-opacity: 0.22; stroke-width: 0.2"/>
    <path d="M 81.512642 84.59593 
L 81.19466 63.356461 
L 80.861905 41.130269 
L 80.513324 17.846956 
" clip-path="url(#p95f62c3be4)" style="fill: none; stroke: #000000; stroke-opacity: 0.22; stroke-width: 0.2"/>
    <path d="M 105.481036 78.960143 
L 105.705222 57.776499 
L 105.939731 35.617383 
L 106.185293 12.413828 
" clip-path="url(#p95f62c3be4)" style="fill: none; stroke: #000000; stroke-opacity: 0.22; stroke-width: 0.2"/>
    <path d="M 129.049602 73.41837 
L 129.797788 52.291696 
L 130.580125 30.200658 
L 131.399008 7.077683 
" clip-path="url(#p95f62c3be4)" style="fill: none; stroke: #000000; stroke-opacity: 0.22; stroke-width: 0.2"/>
   </g>
   <g id="Line3DCollection_2">
    <path d="M 57.985493 152.11335 
L 84.564325 145.290361 
L 110.655926 138.592448 
L 136.273572 132.016203 
L 161.43006 125.55834 
" clip-path="url(#p95f62c3be4)" style="fill: none; stroke: #000000; stroke-opacity: 0.22; stroke-width: 0.2"/>
    <path d="M 48.979861 132.468456 
L 74.938265 126.002487 
L 100.43326 119.651948 
L 125.477144 113.413775 
L 150.081786 107.285014 
" clip-path="url(#p95f62c3be4)" style="fill: none; stroke: #000000; stroke-opacity: 0.22; stroke-width: 0.2"/>
    <path d="M 40.441502 113.842874 
L 65.807288 107.706618 
L 90.731788 101.677113 
L 115.226417 95.751599 
L 139.302201 89.927407 
" clip-path="url(#p95f62c3be4)" style="fill: none; stroke: #000000; stroke-opacity: 0.22; stroke-width: 0.2"/>
    <path d="M 32.334969 96.159277 
L 57.134158 90.328142 
L 81.512642 84.59593 
L 105.481036 78.960143 
L 129.049602 73.41837 
" clip-path="url(#p95f62c3be4)" style="fill: none; stroke: #000000; stroke-opacity: 0.22; stroke-width: 0.2"/>
    <path d="M 57.985493 152.11335 
L 48.979861 132.468456 
L 40.441502 113.842874 
L 32.334969 96.159277 
" clip-path="url(#p95f62c3be4)" style="fill: none; stroke: #000000; stroke-opacity: 0.22; stroke-width: 0.2"/>
    <path d="M 84.564325 145.290361 
L 74.938265 126.002487 
L 65.807288 107.706618 
L 57.134158 90.328142 
" clip-path="url(#p95f62c3be4)" style="fill: none; stroke: #000000; stroke-opacity: 0.22; stroke-width: 0.2"/>
    <path d="M 110.655926 138.592448 
L 100.43326 119.651948 
L 90.731788 101.677113 
L 81.512642 84.59593 
" clip-path="url(#p95f62c3be4)" style="fill: none; stroke: #000000; stroke-opacity: 0.22; stroke-width: 0.2"/>
    <path d="M 136.273572 132.016203 
L 125.477144 113.413775 
L 115.226417 95.751599 
L 105.481036 78.960143 
" clip-path="url(#p95f62c3be4)" style="fill: none; stroke: #000000; stroke-opacity: 0.22; stroke-width: 0.2"/>
    <path d="M 161.43006 125.55834 
L 150.081786 107.285014 
L 139.302201 89.927407 
L 129.049602 73.41837 
" clip-path="url(#p95f62c3be4)" style="fill: none; stroke: #000000; stroke-opacity: 0.22; stroke-width: 0.2"/>
   </g>
   <g id="line2d_4">
    <path d="M 57.985493 152.11335 
L 161.43006 125.55834 
" clip-path="url(#p95f62c3be4)" style="fill: none; stroke: #000000; stroke-width: 0.2; stroke-linecap: square"/>
   </g>
   <g id="line2d_5">
    <path d="M 57.985493 152.11335 
L 32.334969 96.159277 
" clip-path="url(#p95f62c3be4)" style="fill: none; stroke: #000000; stroke-width: 0.2; stroke-linecap: square"/>
   </g>
   <g id="line2d_6">
    <path d="M 32.334969 96.159277 
L 27.74373 29.014933 
" clip-path="url(#p95f62c3be4)" style="fill: none; stroke: #000000; stroke-width: 0.2; stroke-linecap: square"/>
   </g>
   <g id="line2d_7">
    <path d="M 57.985493 152.11335 
L 58.913237 154.137132 
" clip-path="url(#p95f62c3be4)" style="fill: none"/>
   </g>
   <g id="line2d_8">
    <path d="M 110.655926 138.592448 
L 111.70848 140.542614 
" clip-path="url(#p95f62c3be4)" style="fill: none"/>
   </g>
   <g id="line2d_9">
    <path d="M 161.43006 125.55834 
L 162.597902 127.438835 
" clip-path="url(#p95f62c3be4)" style="fill: none"/>
   </g>
   <g id="line2d_10">
    <path d="M 57.985493 152.11335 
L 55.300286 152.802663 
" clip-path="url(#p95f62c3be4)" style="fill: none"/>
   </g>
   <g id="line2d_11">
    <path d="M 40.441502 113.842874 
L 37.880201 114.462481 
" clip-path="url(#p95f62c3be4)" style="fill: none"/>
   </g>
   <g id="line2d_12">
    <path d="M 32.334969 96.159277 
L 29.831492 96.74793 
" clip-path="url(#p95f62c3be4)" style="fill: none"/>
   </g>
   <g id="line2d_13">
    <path d="M 29.346527 52.454951 
L 26.721833 53.03194 
" clip-path="url(#p95f62c3be4)" style="fill: none"/>
   </g>
  </g>
  <g id="text_8">
   <!-- $\log P$ -->
   <g transform="translate(102.33062 159.80095) rotate(-14.397381) scale(0.08 -0.08)">
    <defs>
     <path id="DejaVuSans-6c" d="M 603 4863 
L 1178 4863 
L 1178 0 
L 603 0 
L 603 4863 
z
" transform="scale(0.015625)"/>
     <path id="DejaVuSans-6f" d="M 1959 3097 
Q 1497 3097 1228 2736 
Q 959 2375 959 1747 
Q 959 1119 1226 758 
Q 1494 397 1959 397 
Q 2419 397 2687 759 
Q 2956 1122 2956 1747 
Q 2956 2369 2687 2733 
Q 2419 3097 1959 3097 
z
M 1959 3584 
Q 2709 3584 3137 3096 
Q 3566 2609 3566 1747 
Q 3566 888 3137 398 
Q 2709 -91 1959 -91 
Q 1206 -91 779 398 
Q 353 888 353 1747 
Q 353 2609 779 3096 
Q 1206 3584 1959 3584 
z
" transform="scale(0.015625)"/>
     <path id="DejaVuSans-67" d="M 2906 1791 
Q 2906 2416 2648 2759 
Q 2391 3103 1925 3103 
Q 1463 3103 1205 2759 
Q 947 2416 947 1791 
Q 947 1169 1205 825 
Q 1463 481 1925 481 
Q 2391 481 2648 825 
Q 2906 1169 2906 1791 
z
M 3481 434 
Q 3481 -459 3084 -895 
Q 2688 -1331 1869 -1331 
Q 1566 -1331 1297 -1286 
Q 1028 -1241 775 -1147 
L 775 -588 
Q 1028 -725 1275 -790 
Q 1522 -856 1778 -856 
Q 2344 -856 2625 -561 
Q 2906 -266 2906 331 
L 2906 616 
Q 2728 306 2450 153 
Q 2172 0 1784 0 
Q 1141 0 747 490 
Q 353 981 353 1791 
Q 353 2603 747 3093 
Q 1141 3584 1784 3584 
Q 2172 3584 2450 3431 
Q 2728 3278 2906 2969 
L 2906 3500 
L 3481 3500 
L 3481 434 
z
" transform="scale(0.015625)"/>
     <path id="DejaVuSans-Oblique-50" d="M 1081 4666 
L 2541 4666 
Q 3178 4666 3512 4369 
Q 3847 4072 3847 3500 
Q 3847 2731 3353 2303 
Q 2859 1875 1966 1875 
L 1172 1875 
L 806 0 
L 172 0 
L 1081 4666 
z
M 1613 4147 
L 1275 2394 
L 2069 2394 
Q 2606 2394 2893 2669 
Q 3181 2944 3181 3456 
Q 3181 3784 2986 3965 
Q 2791 4147 2438 4147 
L 1613 4147 
z
" transform="scale(0.015625)"/>
    </defs>
    <use xlink:href="#DejaVuSans-6c" transform="translate(0 0.015625)"/>
    <use xlink:href="#DejaVuSans-6f" transform="translate(27.783203 0.015625)"/>
    <use xlink:href="#DejaVuSans-67" transform="translate(88.964844 0.015625)"/>
    <use xlink:href="#DejaVuSans-Oblique-50" transform="translate(168.677083 0.015625)"/>
   </g>
  </g>
  <g id="text_9">
   <!-- $\log A$ -->
   <g transform="translate(26.621631 130.770499) rotate(-114.627717) scale(0.08 -0.08)">
    <defs>
     <path id="DejaVuSans-Oblique-41" d="M 2356 4666 
L 3072 4666 
L 3938 0 
L 3278 0 
L 3084 1197 
L 984 1197 
L 325 0 
L -341 0 
L 2356 4666 
z
M 2584 4044 
L 1275 1722 
L 2988 1722 
L 2584 4044 
z
" transform="scale(0.015625)"/>
    </defs>
    <use xlink:href="#DejaVuSans-6c" transform="translate(0 0.015625)"/>
    <use xlink:href="#DejaVuSans-6f" transform="translate(27.783203 0.015625)"/>
    <use xlink:href="#DejaVuSans-67" transform="translate(88.964844 0.015625)"/>
    <use xlink:href="#DejaVuSans-Oblique-41" transform="translate(168.677083 0.015625)"/>
   </g>
  </g>
  <g id="text_10">
   <!-- $\log V$ -->
   <g transform="translate(8.964153 73.111818) rotate(-93.911719) scale(0.08 -0.08)">
    <defs>
     <path id="DejaVuSans-Oblique-56" d="M 1319 0 
L 500 4666 
L 1119 4666 
L 1797 653 
L 4063 4666 
L 4750 4666 
L 2053 0 
L 1319 0 
z
" transform="scale(0.015625)"/>
    </defs>
    <use xlink:href="#DejaVuSans-6c" transform="translate(0 0.015625)"/>
    <use xlink:href="#DejaVuSans-6f" transform="translate(27.783203 0.015625)"/>
    <use xlink:href="#DejaVuSans-67" transform="translate(88.964844 0.015625)"/>
    <use xlink:href="#DejaVuSans-Oblique-56" transform="translate(168.677083 0.015625)"/>
   </g>
  </g>
  <g id="text_11">
   <!-- $\beta_V = 0.34$ -->
   <g transform="translate(40.604743 38.013112) rotate(-12.107524) scale(0.08 -0.08)">
    <defs>
     <path id="DejaVuSans-Oblique-3b2" d="M 872 216 
L 572 -1331 
L -6 -1331 
L 928 3478 
Q 1206 4903 2538 4903 
Q 3888 4903 3659 3700 
Q 3503 2844 2894 2531 
Q 3713 2250 3553 1416 
Q 3272 -69 1759 -66 
Q 1097 -63 872 216 
z
M 1019 966 
Q 1259 422 1875 425 
Q 2775 425 2966 1406 
Q 3138 2288 1675 2219 
L 1778 2750 
Q 2909 2731 3106 3750 
Q 3241 4438 2509 4434 
Q 1691 4434 1503 3459 
L 1019 966 
z
" transform="scale(0.015625)"/>
     <path id="DejaVuSans-3d" d="M 678 2906 
L 4684 2906 
L 4684 2381 
L 678 2381 
L 678 2906 
z
M 678 1631 
L 4684 1631 
L 4684 1100 
L 678 1100 
L 678 1631 
z
" transform="scale(0.015625)"/>
     <path id="DejaVuSans-30" d="M 2034 4250 
Q 1547 4250 1301 3770 
Q 1056 3291 1056 2328 
Q 1056 1369 1301 889 
Q 1547 409 2034 409 
Q 2525 409 2770 889 
Q 3016 1369 3016 2328 
Q 3016 3291 2770 3770 
Q 2525 4250 2034 4250 
z
M 2034 4750 
Q 2819 4750 3233 4129 
Q 3647 3509 3647 2328 
Q 3647 1150 3233 529 
Q 2819 -91 2034 -91 
Q 1250 -91 836 529 
Q 422 1150 422 2328 
Q 422 3509 836 4129 
Q 1250 4750 2034 4750 
z
" transform="scale(0.015625)"/>
     <path id="DejaVuSans-2e" d="M 684 794 
L 1344 794 
L 1344 0 
L 684 0 
L 684 794 
z
" transform="scale(0.015625)"/>
     <path id="DejaVuSans-33" d="M 2597 2516 
Q 3050 2419 3304 2112 
Q 3559 1806 3559 1356 
Q 3559 666 3084 287 
Q 2609 -91 1734 -91 
Q 1441 -91 1130 -33 
Q 819 25 488 141 
L 488 750 
Q 750 597 1062 519 
Q 1375 441 1716 441 
Q 2309 441 2620 675 
Q 2931 909 2931 1356 
Q 2931 1769 2642 2001 
Q 2353 2234 1838 2234 
L 1294 2234 
L 1294 2753 
L 1863 2753 
Q 2328 2753 2575 2939 
Q 2822 3125 2822 3475 
Q 2822 3834 2567 4026 
Q 2313 4219 1838 4219 
Q 1578 4219 1281 4162 
Q 984 4106 628 3988 
L 628 4550 
Q 988 4650 1302 4700 
Q 1616 4750 1894 4750 
Q 2613 4750 3031 4423 
Q 3450 4097 3450 3541 
Q 3450 3153 3228 2886 
Q 3006 2619 2597 2516 
z
" transform="scale(0.015625)"/>
     <path id="DejaVuSans-34" d="M 2419 4116 
L 825 1625 
L 2419 1625 
L 2419 4116 
z
M 2253 4666 
L 3047 4666 
L 3047 1625 
L 3713 1625 
L 3713 1100 
L 3047 1100 
L 3047 0 
L 2419 0 
L 2419 1100 
L 313 1100 
L 313 1709 
L 2253 4666 
z
" transform="scale(0.015625)"/>
    </defs>
    <use xlink:href="#DejaVuSans-Oblique-3b2" transform="translate(0 0.390625)"/>
    <use xlink:href="#DejaVuSans-Oblique-56" transform="translate(63.818359 -16.015625) scale(0.7)"/>
    <use xlink:href="#DejaVuSans-3d" transform="translate(133.920898 0.390625)"/>
    <use xlink:href="#DejaVuSans-30" transform="translate(237.192383 0.390625)"/>
    <use xlink:href="#DejaVuSans-2e" transform="translate(300.81543 0.390625)"/>
    <use xlink:href="#DejaVuSans-33" transform="translate(332.602539 0.390625)"/>
    <use xlink:href="#DejaVuSans-34" transform="translate(396.225586 0.390625)"/>
   </g>
  </g>
  <g id="text_12">
   <!-- $\beta_A = 0.36$ -->
   <g transform="translate(116.415591 131.4809) rotate(-14.247758) scale(0.08 -0.08)">
    <defs>
     <path id="DejaVuSans-36" d="M 2113 2584 
Q 1688 2584 1439 2293 
Q 1191 2003 1191 1497 
Q 1191 994 1439 701 
Q 1688 409 2113 409 
Q 2538 409 2786 701 
Q 3034 994 3034 1497 
Q 3034 2003 2786 2293 
Q 2538 2584 2113 2584 
z
M 3366 4563 
L 3366 3988 
Q 3128 4100 2886 4159 
Q 2644 4219 2406 4219 
Q 1781 4219 1451 3797 
Q 1122 3375 1075 2522 
Q 1259 2794 1537 2939 
Q 1816 3084 2150 3084 
Q 2853 3084 3261 2657 
Q 3669 2231 3669 1497 
Q 3669 778 3244 343 
Q 2819 -91 2113 -91 
Q 1303 -91 875 529 
Q 447 1150 447 2328 
Q 447 3434 972 4092 
Q 1497 4750 2381 4750 
Q 2619 4750 2861 4703 
Q 3103 4656 3366 4563 
z
" transform="scale(0.015625)"/>
    </defs>
    <use xlink:href="#DejaVuSans-Oblique-3b2" transform="translate(0 0.390625)"/>
    <use xlink:href="#DejaVuSans-Oblique-41" transform="translate(63.818359 -16.015625) scale(0.7)"/>
    <use xlink:href="#DejaVuSans-3d" transform="translate(133.920898 0.390625)"/>
    <use xlink:href="#DejaVuSans-30" transform="translate(237.192383 0.390625)"/>
    <use xlink:href="#DejaVuSans-2e" transform="translate(300.81543 0.390625)"/>
    <use xlink:href="#DejaVuSans-33" transform="translate(332.602539 0.390625)"/>
    <use xlink:href="#DejaVuSans-36" transform="translate(396.225586 0.390625)"/>
   </g>
  </g>
 </g>
 <defs>
  <clipPath id="p95f62c3be4">
   <rect x="20.409449" y="6.80315" width="146.267717" height="146.267717"/>
  </clipPath>
 </defs>
</svg>
