<?xml version="1.0" encoding="utf-8" standalone="no"?>
<!DOCTYPE svg PUBLIC "-//W3C//DTD SVG 1.1//EN"
  "http://www.w3.org/Graphics/SVG/1.1/DTD/svg11.dtd">
<svg xmlns:xlink="http://www.w3.org/1999/xlink" width="170.07874pt" height="170.07874pt" viewBox="0 0 170.07874 170.07874" xmlns="http://www.w3.org/2000/svg" version="1.1">
 <metadata>
  <rdf:RDF xmlns:dc="http://purl.org/dc/elements/1.1/" xmlns:cc="http://creativecommons.org/ns#" xmlns:rdf="http://www.w3.org/1999/02/22-rdf-syntax-ns#">
   <cc:Work>
    <dc:type rdf:resource="http://purl.org/dc/dcmitype/StillImage"/>
    <dc:date>2026-03-16T22:51:13.184366</dc:date>
    <dc:format>image/svg+xml</dc:format>
    <dc:creator>
     <cc:Agent>
      <dc:title>Matplotlib v3.7.2, https://matplotlib.org/</dc:title>
     </cc:Agent>
    </dc:creator>
   </cc:Work>
  </rdf:RDF>
 </metadata>
 <defs>
  <style type="text/css">*{stroke-linejoin: round; stroke-linecap: butt}</style>
 </defs>
 <g id="figure_1">
  <g id="patch_1">
   <path d="M 0 170.07874 
L 170.07874 170.07874 
L 170.07874 0 
L 0 0 
z
" style="fill: #ffffff"/>
  </g>
  <g id="patch_2">
   <path d="M 20.409449 153.070866 
L 166.677165 153.070866 
L 166.677165 6.80315 
L 20.409449 6.80315 
z
" style="fill: #ffffff"/>
  </g>
  <g id="axes_1">
   <g id="line2d_1">
    <path d="M 68.649241 124.820863 
L 112.216075 100.189122 
L 112.216075 100.189122 
" clip-path="url(#p231cb5124c)" style="fill: none; stroke-dasharray: 2.96,1.28; stroke-dashoffset: 0; stroke: #000000; stroke-opacity: 0.5; stroke-width: 0.8"/>
   </g>
   <g id="line2d_2">
    <path d="M 51.421803 73.193556 
L 100.886741 48.092199 
L 100.886741 48.092199 
" clip-path="url(#p231cb5124c)" style="fill: none; stroke-dasharray: 2.96,1.28; stroke-dashoffset: 0; stroke: #000000; stroke-opacity: 0.5; stroke-width: 0.8"/>
   </g>
   <g id="line2d_3">
    <path d="M 68.093831 106.313488 
L 112.801966 67.904586 
L 112.801966 67.904586 
" clip-path="url(#p231cb5124c)" style="fill: none; stroke: #000000; stroke-opacity: 0.9; stroke-linecap: square"/>
   </g>
   <g id="Path3DCollection_1">
    <defs>
     <path id="C0_0_427fdd2d90" d="M -1.414214 1.414214 
L 1.414214 1.414214 
L 1.414214 -1.414214 
L -1.414214 -1.414214 
z
"/>
    </defs>
    <g clip-path="url(#p231cb5124c)">
     <use xlink:href="#C0_0_427fdd2d90" x="88.785021" y="55.341929" style="fill: #808080; fill-opacity: 0.5"/>
    </g>
    <g clip-path="url(#p231cb5124c)">
     <use xlink:href="#C0_0_427fdd2d90" x="92.633862" y="52.877317" style="fill: #808080; fill-opacity: 0.5"/>
    </g>
    <g clip-path="url(#p231cb5124c)">
     <use xlink:href="#C0_0_427fdd2d90" x="100.813472" y="48.099591" style="fill: #808080; fill-opacity: 0.5"/>
    </g>
    <g clip-path="url(#p231cb5124c)">
     <use xlink:href="#C0_0_427fdd2d90" x="82.594469" y="57.946379" style="fill: #808080; fill-opacity: 0.5"/>
    </g>
    <g clip-path="url(#p231cb5124c)">
     <use xlink:href="#C0_0_427fdd2d90" x="96.105304" y="49.285238" style="fill: #808080; fill-opacity: 0.5"/>
    </g>
    <g clip-path="url(#p231cb5124c)">
     <use xlink:href="#C0_0_427fdd2d90" x="74.533453" y="60.890293" style="fill: #808080; fill-opacity: 0.5"/>
    </g>
    <g clip-path="url(#p231cb5124c)">
     <use xlink:href="#C0_0_427fdd2d90" x="64.01785" y="66.632921" style="fill: #808080; fill-opacity: 0.5"/>
    </g>
    <g clip-path="url(#p231cb5124c)">
     <use xlink:href="#C0_0_427fdd2d90" x="59.772609" y="68.978887" style="fill: #808080; fill-opacity: 0.5"/>
    </g>
    <g clip-path="url(#p231cb5124c)">
     <use xlink:href="#C0_0_427fdd2d90" x="55.639324" y="71.271998" style="fill: #808080; fill-opacity: 0.5"/>
    </g>
    <g clip-path="url(#p231cb5124c)">
     <use xlink:href="#C0_0_427fdd2d90" x="68.438163" y="63.949984" style="fill: #808080; fill-opacity: 0.5"/>
    </g>
    <g clip-path="url(#p231cb5124c)">
     <use xlink:href="#C0_0_427fdd2d90" x="51.457907" y="73.267045" style="fill: #808080; fill-opacity: 0.5"/>
    </g>
   </g>
   <g id="text_1">
    <!-- 5 -->
    <g transform="translate(58.086944 161.590847) scale(0.07 -0.07)">
     <defs>
      <path id="ArialMT-35" d="M 266 1200 
L 856 1250 
Q 922 819 1161 601 
Q 1400 384 1738 384 
Q 2144 384 2425 690 
Q 2706 997 2706 1503 
Q 2706 1984 2436 2262 
Q 2166 2541 1728 2541 
Q 1456 2541 1237 2417 
Q 1019 2294 894 2097 
L 366 2166 
L 809 4519 
L 3088 4519 
L 3088 3981 
L 1259 3981 
L 1013 2750 
Q 1425 3038 1878 3038 
Q 2478 3038 2890 2622 
Q 3303 2206 3303 1553 
Q 3303 931 2941 478 
Q 2500 -78 1738 -78 
Q 1113 -78 717 272 
Q 322 622 266 1200 
z
" transform="scale(0.015625)"/>
     </defs>
     <use xlink:href="#ArialMT-35"/>
    </g>
   </g>
   <g id="text_2">
    <!-- 6 -->
    <g transform="translate(111.032724 147.907193) scale(0.07 -0.07)">
     <defs>
      <path id="ArialMT-36" d="M 3184 3459 
L 2625 3416 
Q 2550 3747 2413 3897 
Q 2184 4138 1850 4138 
Q 1581 4138 1378 3988 
Q 1113 3794 959 3422 
Q 806 3050 800 2363 
Q 1003 2672 1297 2822 
Q 1591 2972 1913 2972 
Q 2475 2972 2870 2558 
Q 3266 2144 3266 1488 
Q 3266 1056 3080 686 
Q 2894 316 2569 119 
Q 2244 -78 1831 -78 
Q 1128 -78 684 439 
Q 241 956 241 2144 
Q 241 3472 731 4075 
Q 1159 4600 1884 4600 
Q 2425 4600 2770 4297 
Q 3116 3994 3184 3459 
z
M 888 1484 
Q 888 1194 1011 928 
Q 1134 663 1356 523 
Q 1578 384 1822 384 
Q 2178 384 2434 671 
Q 2691 959 2691 1453 
Q 2691 1928 2437 2201 
Q 2184 2475 1800 2475 
Q 1419 2475 1153 2201 
Q 888 1928 888 1484 
z
" transform="scale(0.015625)"/>
     </defs>
     <use xlink:href="#ArialMT-36"/>
    </g>
   </g>
   <g id="text_3">
    <!-- 7 -->
    <g transform="translate(162.061165 134.719069) scale(0.07 -0.07)">
     <defs>
      <path id="ArialMT-37" d="M 303 3981 
L 303 4522 
L 3269 4522 
L 3269 4084 
Q 2831 3619 2401 2847 
Q 1972 2075 1738 1259 
Q 1569 684 1522 0 
L 944 0 
Q 953 541 1156 1306 
Q 1359 2072 1739 2783 
Q 2119 3494 2547 3981 
L 303 3981 
z
" transform="scale(0.015625)"/>
     </defs>
     <use xlink:href="#ArialMT-37"/>
    </g>
   </g>
   <g id="text_4">
    <!-- 7 -->
    <g transform="translate(47.100844 155.717858) scale(0.07 -0.07)">
     <use xlink:href="#ArialMT-37"/>
    </g>
   </g>
   <g id="text_5">
    <!-- 8 -->
    <g transform="translate(29.880009 117.265747) scale(0.07 -0.07)">
     <defs>
      <path id="ArialMT-38" d="M 1131 2484 
Q 781 2613 612 2850 
Q 444 3088 444 3419 
Q 444 3919 803 4259 
Q 1163 4600 1759 4600 
Q 2359 4600 2725 4251 
Q 3091 3903 3091 3403 
Q 3091 3084 2923 2848 
Q 2756 2613 2416 2484 
Q 2838 2347 3058 2040 
Q 3278 1734 3278 1309 
Q 3278 722 2862 322 
Q 2447 -78 1769 -78 
Q 1091 -78 675 323 
Q 259 725 259 1325 
Q 259 1772 486 2073 
Q 713 2375 1131 2484 
z
M 1019 3438 
Q 1019 3113 1228 2906 
Q 1438 2700 1772 2700 
Q 2097 2700 2305 2904 
Q 2513 3109 2513 3406 
Q 2513 3716 2298 3927 
Q 2084 4138 1766 4138 
Q 1444 4138 1231 3931 
Q 1019 3725 1019 3438 
z
M 838 1322 
Q 838 1081 952 856 
Q 1066 631 1291 507 
Q 1516 384 1775 384 
Q 2178 384 2440 643 
Q 2703 903 2703 1303 
Q 2703 1709 2433 1975 
Q 2163 2241 1756 2241 
Q 1359 2241 1098 1978 
Q 838 1716 838 1322 
z
" transform="scale(0.015625)"/>
     </defs>
     <use xlink:href="#ArialMT-38"/>
    </g>
   </g>
   <g id="text_6">
    <!-- 8 -->
    <g transform="translate(21.607339 95.30701) scale(0.07 -0.07)">
     <use xlink:href="#ArialMT-38"/>
    </g>
   </g>
   <g id="text_7">
    <!-- 9 -->
    <g transform="translate(18.619776 55.766906) scale(0.07 -0.07)">
     <defs>
      <path id="ArialMT-39" d="M 350 1059 
L 891 1109 
Q 959 728 1153 556 
Q 1347 384 1650 384 
Q 1909 384 2104 503 
Q 2300 622 2425 820 
Q 2550 1019 2634 1356 
Q 2719 1694 2719 2044 
Q 2719 2081 2716 2156 
Q 2547 1888 2255 1720 
Q 1963 1553 1622 1553 
Q 1053 1553 659 1965 
Q 266 2378 266 3053 
Q 266 3750 677 4175 
Q 1088 4600 1706 4600 
Q 2153 4600 2523 4359 
Q 2894 4119 3086 3673 
Q 3278 3228 3278 2384 
Q 3278 1506 3087 986 
Q 2897 466 2520 194 
Q 2144 -78 1638 -78 
Q 1100 -78 759 220 
Q 419 519 350 1059 
z
M 2653 3081 
Q 2653 3566 2395 3850 
Q 2138 4134 1775 4134 
Q 1400 4134 1122 3828 
Q 844 3522 844 3034 
Q 844 2597 1108 2323 
Q 1372 2050 1759 2050 
Q 2150 2050 2401 2323 
Q 2653 2597 2653 3081 
z
" transform="scale(0.015625)"/>
     </defs>
     <use xlink:href="#ArialMT-39"/>
    </g>
   </g>
   <g id="Path3DCollection_2">
    <defs>
     <path id="C1_0_248bf17bac" d="M -1.414214 1.414214 
L 1.414214 1.414214 
L 1.414214 -1.414214 
L -1.414214 -1.414214 
z
"/>
    </defs>
    <g clip-path="url(#p231cb5124c)">
     <use xlink:href="#C1_0_248bf17bac" x="112.06021" y="100.061549" style="fill: #808080; fill-opacity: 0.5"/>
    </g>
    <g clip-path="url(#p231cb5124c)">
     <use xlink:href="#C1_0_248bf17bac" x="107.481801" y="101.361474" style="fill: #808080; fill-opacity: 0.5"/>
    </g>
    <g clip-path="url(#p231cb5124c)">
     <use xlink:href="#C1_0_248bf17bac" x="105.453437" y="104.752672" style="fill: #808080; fill-opacity: 0.5"/>
    </g>
    <g clip-path="url(#p231cb5124c)">
     <use xlink:href="#C1_0_248bf17bac" x="102.389662" y="107.125456" style="fill: #808080; fill-opacity: 0.5"/>
    </g>
    <g clip-path="url(#p231cb5124c)">
     <use xlink:href="#C1_0_248bf17bac" x="96.750559" y="109.718015" style="fill: #808080; fill-opacity: 0.5"/>
    </g>
    <g clip-path="url(#p231cb5124c)">
     <use xlink:href="#C1_0_248bf17bac" x="89.154434" y="112.706364" style="fill: #808080; fill-opacity: 0.5"/>
    </g>
    <g clip-path="url(#p231cb5124c)">
     <use xlink:href="#C1_0_248bf17bac" x="83.715371" y="115.666083" style="fill: #808080; fill-opacity: 0.5"/>
    </g>
    <g clip-path="url(#p231cb5124c)">
     <use xlink:href="#C1_0_248bf17bac" x="79.931726" y="118.225989" style="fill: #808080; fill-opacity: 0.5"/>
    </g>
    <g clip-path="url(#p231cb5124c)">
     <use xlink:href="#C1_0_248bf17bac" x="76.197836" y="120.539596" style="fill: #808080; fill-opacity: 0.5"/>
    </g>
    <g clip-path="url(#p231cb5124c)">
     <use xlink:href="#C1_0_248bf17bac" x="72.540085" y="122.809259" style="fill: #808080; fill-opacity: 0.5"/>
    </g>
    <g clip-path="url(#p231cb5124c)">
     <use xlink:href="#C1_0_248bf17bac" x="68.685098" y="124.818311" style="fill: #808080; fill-opacity: 0.5"/>
    </g>
   </g>
   <g id="Poly3DCollection_1">
    <path d="M 110.841358 68.321522 
L 113.367333 67.735978 
L 113.409262 65.498364 
L 110.877385 66.083274 
z
" clip-path="url(#p231cb5124c)" style="fill: #1f77b4; fill-opacity: 0.5"/>
    <path d="M 111.871198 70.043603 
L 114.402895 69.454972 
L 113.367333 67.735978 
L 110.841358 68.321522 
z
" clip-path="url(#p231cb5124c)" style="fill: #1f77b4; fill-opacity: 0.5"/>
    <path d="M 114.402895 69.454972 
L 113.367333 67.735978 
L 113.409262 65.498364 
L 114.447374 67.215505 
z
" clip-path="url(#p231cb5124c)" style="fill: #1f77b4; fill-opacity: 0.5"/>
    <path d="M 111.871198 70.043603 
L 110.841358 68.321522 
L 110.877385 66.083274 
L 111.909747 67.803506 
z
" clip-path="url(#p231cb5124c)" style="fill: #1f77b4; fill-opacity: 0.5"/>
    <path d="M 106.107769 69.735003 
L 108.642582 69.147127 
L 108.673467 66.908759 
L 106.13271 67.496005 
z
" clip-path="url(#p231cb5124c)" style="fill: #1f77b4; fill-opacity: 0.5"/>
    <path d="M 107.126995 71.463955 
L 109.667574 70.872974 
L 108.642582 69.147127 
L 106.107769 69.735003 
z
" clip-path="url(#p231cb5124c)" style="fill: #1f77b4; fill-opacity: 0.5"/>
    <path d="M 111.909747 67.803506 
L 114.447374 67.215505 
L 113.409262 65.498364 
L 110.877385 66.083274 
z
" clip-path="url(#p231cb5124c)" style="fill: #1f77b4; fill-opacity: 0.5"/>
    <path d="M 111.871198 70.043603 
L 114.402895 69.454972 
L 114.447374 67.215505 
L 111.909747 67.803506 
z
" clip-path="url(#p231cb5124c)" style="fill: #1f77b4; fill-opacity: 0.5"/>
    <path d="M 109.667574 70.872974 
L 108.642582 69.147127 
L 108.673467 66.908759 
L 109.70096 68.632763 
z
" clip-path="url(#p231cb5124c)" style="fill: #1f77b4; fill-opacity: 0.5"/>
    <path d="M 107.126995 71.463955 
L 106.107769 69.735003 
L 106.13271 67.496005 
L 107.15441 69.223118 
z
" clip-path="url(#p231cb5124c)" style="fill: #1f77b4; fill-opacity: 0.5"/>
    <path d="M 103.979893 75.914267 
L 106.521912 75.319608 
L 106.54786 73.091112 
L 103.999864 73.685165 
z
" clip-path="url(#p231cb5124c)" style="fill: #1f77b4; fill-opacity: 0.5"/>
    <path d="M 104.995629 77.663182 
L 107.543448 77.065375 
L 106.521912 75.319608 
L 103.979893 75.914267 
z
" clip-path="url(#p231cb5124c)" style="fill: #1f77b4; fill-opacity: 0.5"/>
    <path d="M 107.15441 69.223118 
L 109.70096 68.632763 
L 108.673467 66.908759 
L 106.13271 67.496005 
z
" clip-path="url(#p231cb5124c)" style="fill: #1f77b4; fill-opacity: 0.5"/>
    <path d="M 107.126995 71.463955 
L 109.667574 70.872974 
L 109.70096 68.632763 
L 107.15441 69.223118 
z
" clip-path="url(#p231cb5124c)" style="fill: #1f77b4; fill-opacity: 0.5"/>
    <path d="M 107.543448 77.065375 
L 106.521912 75.319608 
L 106.54786 73.091112 
L 107.571881 74.835106 
z
" clip-path="url(#p231cb5124c)" style="fill: #1f77b4; fill-opacity: 0.5"/>
    <path d="M 104.995629 77.663182 
L 103.979893 75.914267 
L 103.999864 73.685165 
L 105.018057 75.432311 
z
" clip-path="url(#p231cb5124c)" style="fill: #1f77b4; fill-opacity: 0.5"/>
    <path d="M 100.809666 79.867351 
L 103.359175 79.268047 
L 103.377698 77.044808 
L 100.822176 77.64352 
z
" clip-path="url(#p231cb5124c)" style="fill: #1f77b4; fill-opacity: 0.5"/>
    <path d="M 101.818861 81.629938 
L 104.374207 81.027456 
L 103.359175 79.268047 
L 100.809666 79.867351 
z
" clip-path="url(#p231cb5124c)" style="fill: #1f77b4; fill-opacity: 0.5"/>
    <path d="M 105.018057 75.432311 
L 107.571881 74.835106 
L 106.54786 73.091112 
L 103.999864 73.685165 
z
" clip-path="url(#p231cb5124c)" style="fill: #1f77b4; fill-opacity: 0.5"/>
    <path d="M 104.995629 77.663182 
L 107.543448 77.065375 
L 107.571881 74.835106 
L 105.018057 75.432311 
z
" clip-path="url(#p231cb5124c)" style="fill: #1f77b4; fill-opacity: 0.5"/>
    <path d="M 104.374207 81.027456 
L 103.359175 79.268047 
L 103.377698 77.044808 
L 104.395183 78.802486 
z
" clip-path="url(#p231cb5124c)" style="fill: #1f77b4; fill-opacity: 0.5"/>
    <path d="M 101.818861 81.629938 
L 100.809666 79.867351 
L 100.822176 77.64352 
L 101.833798 79.404381 
z
" clip-path="url(#p231cb5124c)" style="fill: #1f77b4; fill-opacity: 0.5"/>
    <path d="M 101.833798 79.404381 
L 104.395183 78.802486 
L 103.377698 77.044808 
L 100.822176 77.64352 
z
" clip-path="url(#p231cb5124c)" style="fill: #1f77b4; fill-opacity: 0.5"/>
    <path d="M 95.004821 83.645123 
L 97.566061 83.040881 
L 97.570908 80.820908 
L 95.0036 81.42457 
z
" clip-path="url(#p231cb5124c)" style="fill: #1f77b4; fill-opacity: 0.5"/>
    <path d="M 101.818861 81.629938 
L 104.374207 81.027456 
L 104.395183 78.802486 
L 101.833798 79.404381 
z
" clip-path="url(#p231cb5124c)" style="fill: #1f77b4; fill-opacity: 0.5"/>
    <path d="M 96.001177 85.422246 
L 98.568311 84.814792 
L 97.566061 83.040881 
L 95.004821 83.645123 
z
" clip-path="url(#p231cb5124c)" style="fill: #1f77b4; fill-opacity: 0.5"/>
    <path d="M 98.568311 84.814792 
L 97.566061 83.040881 
L 97.570908 80.820908 
L 98.575552 82.593126 
z
" clip-path="url(#p231cb5124c)" style="fill: #1f77b4; fill-opacity: 0.5"/>
    <path d="M 96.001177 85.422246 
L 95.004821 83.645123 
L 95.0036 81.42457 
L 96.002321 83.200006 
z
" clip-path="url(#p231cb5124c)" style="fill: #1f77b4; fill-opacity: 0.5"/>
    <path d="M 96.002321 83.200006 
L 98.575552 82.593126 
L 97.570908 80.820908 
L 95.0036 81.42457 
z
" clip-path="url(#p231cb5124c)" style="fill: #1f77b4; fill-opacity: 0.5"/>
    <path d="M 96.001177 85.422246 
L 98.568311 84.814792 
L 98.575552 82.593126 
L 96.002321 83.200006 
z
" clip-path="url(#p231cb5124c)" style="fill: #1f77b4; fill-opacity: 0.5"/>
    <path d="M 87.204305 87.728032 
L 89.780805 87.118159 
L 89.767167 84.900756 
L 87.184526 85.510065 
z
" clip-path="url(#p231cb5124c)" style="fill: #1f77b4; fill-opacity: 0.5"/>
    <path d="M 88.183075 89.521739 
L 90.765545 88.908613 
L 89.780805 87.118159 
L 87.204305 87.728032 
z
" clip-path="url(#p231cb5124c)" style="fill: #1f77b4; fill-opacity: 0.5"/>
    <path d="M 90.765545 88.908613 
L 89.780805 87.118159 
L 89.767167 84.900756 
L 90.754217 86.68956 
z
" clip-path="url(#p231cb5124c)" style="fill: #1f77b4; fill-opacity: 0.5"/>
    <path d="M 88.183075 89.521739 
L 87.204305 87.728032 
L 87.184526 85.510065 
L 88.165577 87.302125 
z
" clip-path="url(#p231cb5124c)" style="fill: #1f77b4; fill-opacity: 0.5"/>
    <path d="M 88.165577 87.302125 
L 90.754217 86.68956 
L 89.767167 84.900756 
L 87.184526 85.510065 
z
" clip-path="url(#p231cb5124c)" style="fill: #1f77b4; fill-opacity: 0.5"/>
    <path d="M 81.640089 92.342791 
L 84.22815 91.727187 
L 84.201248 89.515152 
L 81.606991 90.130208 
z
" clip-path="url(#p231cb5124c)" style="fill: #1f77b4; fill-opacity: 0.5"/>
    <path d="M 88.183075 89.521739 
L 90.765545 88.908613 
L 90.754217 86.68956 
L 88.165577 87.302125 
z
" clip-path="url(#p231cb5124c)" style="fill: #1f77b4; fill-opacity: 0.5"/>
    <path d="M 82.606476 94.153371 
L 85.200564 93.534475 
L 84.22815 91.727187 
L 81.640089 92.342791 
z
" clip-path="url(#p231cb5124c)" style="fill: #1f77b4; fill-opacity: 0.5"/>
    <path d="M 85.200564 93.534475 
L 84.22815 91.727187 
L 84.201248 89.515152 
L 85.175913 91.32084 
z
" clip-path="url(#p231cb5124c)" style="fill: #1f77b4; fill-opacity: 0.5"/>
    <path d="M 82.606476 94.153371 
L 81.640089 92.342791 
L 81.606991 90.130208 
L 82.575601 91.939193 
z
" clip-path="url(#p231cb5124c)" style="fill: #1f77b4; fill-opacity: 0.5"/>
    <path d="M 77.789018 96.562604 
L 80.385527 95.941983 
L 80.349401 93.735773 
L 77.746656 94.355862 
z
" clip-path="url(#p231cb5124c)" style="fill: #1f77b4; fill-opacity: 0.5"/>
    <path d="M 78.746951 98.387949 
L 81.349529 97.764004 
L 80.385527 95.941983 
L 77.789018 96.562604 
z
" clip-path="url(#p231cb5124c)" style="fill: #1f77b4; fill-opacity: 0.5"/>
    <path d="M 82.575601 91.939193 
L 85.175913 91.32084 
L 84.201248 89.515152 
L 81.606991 90.130208 
z
" clip-path="url(#p231cb5124c)" style="fill: #1f77b4; fill-opacity: 0.5"/>
    <path d="M 82.606476 94.153371 
L 85.200564 93.534475 
L 85.175913 91.32084 
L 82.575601 91.939193 
z
" clip-path="url(#p231cb5124c)" style="fill: #1f77b4; fill-opacity: 0.5"/>
    <path d="M 81.349529 97.764004 
L 80.385527 95.941983 
L 80.349401 93.735773 
L 81.315614 95.55624 
z
" clip-path="url(#p231cb5124c)" style="fill: #1f77b4; fill-opacity: 0.5"/>
    <path d="M 78.746951 98.387949 
L 77.789018 96.562604 
L 77.746656 94.355862 
L 78.70677 96.179659 
z
" clip-path="url(#p231cb5124c)" style="fill: #1f77b4; fill-opacity: 0.5"/>
    <path d="M 73.99617 100.238716 
L 76.600951 99.613594 
L 76.555707 97.412064 
L 73.94465 98.036668 
z
" clip-path="url(#p231cb5124c)" style="fill: #1f77b4; fill-opacity: 0.5"/>
    <path d="M 74.945716 102.077314 
L 77.556606 101.448837 
L 76.600951 99.613594 
L 73.99617 100.238716 
z
" clip-path="url(#p231cb5124c)" style="fill: #1f77b4; fill-opacity: 0.5"/>
    <path d="M 78.70677 96.179659 
L 81.315614 95.55624 
L 80.349401 93.735773 
L 77.746656 94.355862 
z
" clip-path="url(#p231cb5124c)" style="fill: #1f77b4; fill-opacity: 0.5"/>
    <path d="M 78.746951 98.387949 
L 81.349529 97.764004 
L 81.315614 95.55624 
L 78.70677 96.179659 
z
" clip-path="url(#p231cb5124c)" style="fill: #1f77b4; fill-opacity: 0.5"/>
    <path d="M 77.556606 101.448837 
L 76.600951 99.613594 
L 76.555707 97.412064 
L 77.513533 99.245795 
z
" clip-path="url(#p231cb5124c)" style="fill: #1f77b4; fill-opacity: 0.5"/>
    <path d="M 74.945716 102.077314 
L 73.99617 100.238716 
L 73.94465 98.036668 
L 74.896337 99.873761 
z
" clip-path="url(#p231cb5124c)" style="fill: #1f77b4; fill-opacity: 0.5"/>
    <path d="M 70.291395 103.842267 
L 72.904253 103.212728 
L 72.850071 101.015843 
L 70.230898 101.64488 
z
" clip-path="url(#p231cb5124c)" style="fill: #1f77b4; fill-opacity: 0.5"/>
    <path d="M 71.232706 105.693871 
L 73.851714 105.060946 
L 72.904253 103.212728 
L 70.291395 103.842267 
z
" clip-path="url(#p231cb5124c)" style="fill: #1f77b4; fill-opacity: 0.5"/>
    <path d="M 74.896337 99.873761 
L 77.513533 99.245795 
L 76.555707 97.412064 
L 73.94465 98.036668 
z
" clip-path="url(#p231cb5124c)" style="fill: #1f77b4; fill-opacity: 0.5"/>
    <path d="M 74.945716 102.077314 
L 77.556606 101.448837 
L 77.513533 99.245795 
L 74.896337 99.873761 
z
" clip-path="url(#p231cb5124c)" style="fill: #1f77b4; fill-opacity: 0.5"/>
    <path d="M 73.851714 105.060946 
L 72.904253 103.212728 
L 72.850071 101.015843 
L 73.799663 102.862591 
z
" clip-path="url(#p231cb5124c)" style="fill: #1f77b4; fill-opacity: 0.5"/>
    <path d="M 66.387482 106.876278 
L 69.008482 106.242861 
L 68.944856 104.049396 
L 66.317501 104.682321 
z
" clip-path="url(#p231cb5124c)" style="fill: #1f77b4; fill-opacity: 0.5"/>
    <path d="M 71.232706 105.693871 
L 70.291395 103.842267 
L 70.230898 101.64488 
L 71.17431 103.495018 
z
" clip-path="url(#p231cb5124c)" style="fill: #1f77b4; fill-opacity: 0.5"/>
    <path d="M 67.319941 108.739296 
L 69.947132 108.102467 
L 69.008482 106.242861 
L 66.387482 106.876278 
z
" clip-path="url(#p231cb5124c)" style="fill: #1f77b4; fill-opacity: 0.5"/>
    <path d="M 71.17431 103.495018 
L 73.799663 102.862591 
L 72.850071 101.015843 
L 70.230898 101.64488 
z
" clip-path="url(#p231cb5124c)" style="fill: #1f77b4; fill-opacity: 0.5"/>
    <path d="M 69.947132 108.102467 
L 69.008482 106.242861 
L 68.944856 104.049396 
L 69.885593 105.907566 
z
" clip-path="url(#p231cb5124c)" style="fill: #1f77b4; fill-opacity: 0.5"/>
    <path d="M 71.232706 105.693871 
L 73.851714 105.060946 
L 73.799663 102.862591 
L 71.17431 103.495018 
z
" clip-path="url(#p231cb5124c)" style="fill: #1f77b4; fill-opacity: 0.5"/>
    <path d="M 67.319941 108.739296 
L 66.387482 106.876278 
L 66.317501 104.682321 
L 67.252017 106.543909 
z
" clip-path="url(#p231cb5124c)" style="fill: #1f77b4; fill-opacity: 0.5"/>
    <path d="M 67.252017 106.543909 
L 69.885593 105.907566 
L 68.944856 104.049396 
L 66.317501 104.682321 
z
" clip-path="url(#p231cb5124c)" style="fill: #1f77b4; fill-opacity: 0.5"/>
    <path d="M 67.319941 108.739296 
L 69.947132 108.102467 
L 69.885593 105.907566 
L 67.252017 106.543909 
z
" clip-path="url(#p231cb5124c)" style="fill: #1f77b4; fill-opacity: 0.5"/>
   </g>
   <g id="Line3DCollection_1">
    <path d="M 32.334969 96.159277 
L 57.134158 90.328142 
L 81.512642 84.59593 
L 105.481036 78.960143 
L 129.049602 73.41837 
" clip-path="url(#p231cb5124c)" style="fill: none; stroke: #000000; stroke-opacity: 0.22; stroke-width: 0.2"/>
    <path d="M 30.875268 74.811944 
L 56.255129 69.034081 
L 81.19466 63.356461 
L 105.705222 57.776499 
L 129.797788 52.291696 
" clip-path="url(#p231cb5124c)" style="fill: none; stroke: #000000; stroke-opacity: 0.22; stroke-width: 0.2"/>
    <path d="M 29.346527 52.454951 
L 55.334896 46.741899 
L 80.861905 41.130269 
L 105.939731 35.617383 
L 130.580125 30.200658 
" clip-path="url(#p231cb5124c)" style="fill: none; stroke: #000000; stroke-opacity: 0.22; stroke-width: 0.2"/>
    <path d="M 27.74373 29.014933 
L 54.370495 23.379735 
L 80.513324 17.846956 
L 106.185293 12.413828 
L 131.399008 7.077683 
" clip-path="url(#p231cb5124c)" style="fill: none; stroke: #000000; stroke-opacity: 0.22; stroke-width: 0.2"/>
    <path d="M 32.334969 96.159277 
L 30.875268 74.811944 
L 29.346527 52.454951 
L 27.74373 29.014933 
" clip-path="url(#p231cb5124c)" style="fill: none; stroke: #000000; stroke-opacity: 0.22; stroke-width: 0.2"/>
    <path d="M 57.134158 90.328142 
L 56.255129 69.034081 
L 55.334896 46.741899 
L 54.370495 23.379735 
" clip-path="url(#p231cb5124c)" style="fill: none; stroke: #000000; stroke-opacity: 0.22; stroke-width: 0.2"/>
    <path d="M 81.512642 84.59593 
L 81.19466 63.356461 
L 80.861905 41.130269 
L 80.513324 17.846956 
" clip-path="url(#p231cb5124c)" style="fill: none; stroke: #000000; stroke-opacity: 0.22; stroke-width: 0.2"/>
    <path d="M 105.481036 78.960143 
L 105.705222 57.776499 
L 105.939731 35.617383 
L 106.185293 12.413828 
" clip-path="url(#p231cb5124c)" style="fill: none; stroke: #000000; stroke-opacity: 0.22; stroke-width: 0.2"/>
    <path d="M 129.049602 73.41837 
L 129.797788 52.291696 
L 130.580125 30.200658 
L 131.399008 7.077683 
" clip-path="url(#p231cb5124c)" style="fill: none; stroke: #000000; stroke-opacity: 0.22; stroke-width: 0.2"/>
   </g>
   <g id="Line3DCollection_2">
    <path d="M 57.985493 152.11335 
L 84.564325 145.290361 
L 110.655926 138.592448 
L 136.273572 132.016203 
L 161.43006 125.55834 
" clip-path="url(#p231cb5124c)" style="fill: none; stroke: #000000; stroke-opacity: 0.22; stroke-width: 0.2"/>
    <path d="M 48.979861 132.468456 
L 74.938265 126.002487 
L 100.43326 119.651948 
L 125.477144 113.413775 
L 150.081786 107.285014 
" clip-path="url(#p231cb5124c)" style="fill: none; stroke: #000000; stroke-opacity: 0.22; stroke-width: 0.2"/>
    <path d="M 40.441502 113.842874 
L 65.807288 107.706618 
L 90.731788 101.677113 
L 115.226417 95.751599 
L 139.302201 89.927407 
" clip-path="url(#p231cb5124c)" style="fill: none; stroke: #000000; stroke-opacity: 0.22; stroke-width: 0.2"/>
    <path d="M 32.334969 96.159277 
L 57.134158 90.328142 
L 81.512642 84.59593 
L 105.481036 78.960143 
L 129.049602 73.41837 
" clip-path="url(#p231cb5124c)" style="fill: none; stroke: #000000; stroke-opacity: 0.22; stroke-width: 0.2"/>
    <path d="M 57.985493 152.11335 
L 48.979861 132.468456 
L 40.441502 113.842874 
L 32.334969 96.159277 
" clip-path="url(#p231cb5124c)" style="fill: none; stroke: #000000; stroke-opacity: 0.22; stroke-width: 0.2"/>
    <path d="M 84.564325 145.290361 
L 74.938265 126.002487 
L 65.807288 107.706618 
L 57.134158 90.328142 
" clip-path="url(#p231cb5124c)" style="fill: none; stroke: #000000; stroke-opacity: 0.22; stroke-width: 0.2"/>
    <path d="M 110.655926 138.592448 
L 100.43326 119.651948 
L 90.731788 101.677113 
L 81.512642 84.59593 
" clip-path="url(#p231cb5124c)" style="fill: none; stroke: #000000; stroke-opacity: 0.22; stroke-width: 0.2"/>
    <path d="M 136.273572 132.016203 
L 125.477144 113.413775 
L 115.226417 95.751599 
L 105.481036 78.960143 
" clip-path="url(#p231cb5124c)" style="fill: none; stroke: #000000; stroke-opacity: 0.22; stroke-width: 0.2"/>
    <path d="M 161.43006 125.55834 
L 150.081786 107.285014 
L 139.302201 89.927407 
L 129.049602 73.41837 
" clip-path="url(#p231cb5124c)" style="fill: none; stroke: #000000; stroke-opacity: 0.22; stroke-width: 0.2"/>
   </g>
   <g id="line2d_4">
    <path d="M 57.985493 152.11335 
L 161.43006 125.55834 
" clip-path="url(#p231cb5124c)" style="fill: none; stroke: #000000; stroke-width: 0.2; stroke-linecap: square"/>
   </g>
   <g id="line2d_5">
    <path d="M 57.985493 152.11335 
L 32.334969 96.159277 
" clip-path="url(#p231cb5124c)" style="fill: none; stroke: #000000; stroke-width: 0.2; stroke-linecap: square"/>
   </g>
   <g id="line2d_6">
    <path d="M 32.334969 96.159277 
L 27.74373 29.014933 
" clip-path="url(#p231cb5124c)" style="fill: none; stroke: #000000; stroke-width: 0.2; stroke-linecap: square"/>
   </g>
   <g id="line2d_7">
    <path d="M 57.985493 152.11335 
L 58.913237 154.137132 
" clip-path="url(#p231cb5124c)" style="fill: none"/>
   </g>
   <g id="line2d_8">
    <path d="M 110.655926 138.592448 
L 111.70848 140.542614 
" clip-path="url(#p231cb5124c)" style="fill: none"/>
   </g>
   <g id="line2d_9">
    <path d="M 161.43006 125.55834 
L 162.597902 127.438835 
" clip-path="url(#p231cb5124c)" style="fill: none"/>
   </g>
   <g id="line2d_10">
    <path d="M 57.985493 152.11335 
L 55.300286 152.802663 
" clip-path="url(#p231cb5124c)" style="fill: none"/>
   </g>
   <g id="line2d_11">
    <path d="M 40.441502 113.842874 
L 37.880201 114.462481 
" clip-path="url(#p231cb5124c)" style="fill: none"/>
   </g>
   <g id="line2d_12">
    <path d="M 32.334969 96.159277 
L 29.831492 96.74793 
" clip-path="url(#p231cb5124c)" style="fill: none"/>
   </g>
   <g id="line2d_13">
    <path d="M 29.346527 52.454951 
L 26.721833 53.03194 
" clip-path="url(#p231cb5124c)" style="fill: none"/>
   </g>
  </g>
  <g id="text_8">
   <!-- $\log P$ -->
   <g transform="translate(102.33062 159.80095) rotate(-14.397381) scale(0.08 -0.08)">
    <defs>
     <path id="DejaVuSans-6c" d="M 603 4863 
L 1178 4863 
L 1178 0 
L 603 0 
L 603 4863 
z
" transform="scale(0.015625)"/>
     <path id="DejaVuSans-6f" d="M 1959 3097 
Q 1497 3097 1228 2736 
Q 959 2375 959 1747 
Q 959 1119 1226 758 
Q 1494 397 1959 397 
Q 2419 397 2687 759 
Q 2956 1122 2956 1747 
Q 2956 2369 2687 2733 
Q 2419 3097 1959 3097 
z
M 1959 3584 
Q 2709 3584 3137 3096 
Q 3566 2609 3566 1747 
Q 3566 888 3137 398 
Q 2709 -91 1959 -91 
Q 1206 -91 779 398 
Q 353 888 353 1747 
Q 353 2609 779 3096 
Q 1206 3584 1959 3584 
z
" transform="scale(0.015625)"/>
     <path id="DejaVuSans-67" d="M 2906 1791 
Q 2906 2416 2648 2759 
Q 2391 3103 1925 3103 
Q 1463 3103 1205 2759 
Q 947 2416 947 1791 
Q 947 1169 1205 825 
Q 1463 481 1925 481 
Q 2391 481 2648 825 
Q 2906 1169 2906 1791 
z
M 3481 434 
Q 3481 -459 3084 -895 
Q 2688 -1331 1869 -1331 
Q 1566 -1331 1297 -1286 
Q 1028 -1241 775 -1147 
L 775 -588 
Q 1028 -725 1275 -790 
Q 1522 -856 1778 -856 
Q 2344 -856 2625 -561 
Q 2906 -266 2906 331 
L 2906 616 
Q 2728 306 2450 153 
Q 2172 0 1784 0 
Q 1141 0 747 490 
Q 353 981 353 1791 
Q 353 2603 747 3093 
Q 1141 3584 1784 3584 
Q 2172 3584 2450 3431 
Q 2728 3278 2906 2969 
L 2906 3500 
L 3481 3500 
L 3481 434 
z
" transform="scale(0.015625)"/>
     <path id="DejaVuSans-Oblique-50" d="M 1081 4666 
L 2541 4666 
Q 3178 4666 3512 4369 
Q 3847 4072 3847 3500 
Q 3847 2731 3353 2303 
Q 2859 1875 1966 1875 
L 1172 1875 
L 806 0 
L 172 0 
L 1081 4666 
z
M 1613 4147 
L 1275 2394 
L 2069 2394 
Q 2606 2394 2893 2669 
Q 3181 2944 3181 3456 
Q 3181 3784 2986 3965 
Q 2791 4147 2438 4147 
L 1613 4147 
z
" transform="scale(0.015625)"/>
    </defs>
    <use xlink:href="#DejaVuSans-6c" transform="translate(0 0.015625)"/>
    <use xlink:href="#DejaVuSans-6f" transform="translate(27.783203 0.015625)"/>
    <use xlink:href="#DejaVuSans-67" transform="translate(88.964844 0.015625)"/>
    <use xlink:href="#DejaVuSans-Oblique-50" transform="translate(168.677083 0.015625)"/>
   </g>
  </g>
  <g id="text_9">
   <!-- $\log A$ -->
   <g transform="translate(26.621631 130.770499) rotate(-114.627717) scale(0.08 -0.08)">
    <defs>
     <path id="DejaVuSans-Oblique-41" d="M 2356 4666 
L 3072 4666 
L 3938 0 
L 3278 0 
L 3084 1197 
L 984 1197 
L 325 0 
L -341 0 
L 2356 4666 
z
M 2584 4044 
L 1275 1722 
L 2988 1722 
L 2584 4044 
z
" transform="scale(0.015625)"/>
    </defs>
    <use xlink:href="#DejaVuSans-6c" transform="translate(0 0.015625)"/>
    <use xlink:href="#DejaVuSans-6f" transform="translate(27.783203 0.015625)"/>
    <use xlink:href="#DejaVuSans-67" transform="translate(88.964844 0.015625)"/>
    <use xlink:href="#DejaVuSans-Oblique-41" transform="translate(168.677083 0.015625)"/>
   </g>
  </g>
  <g id="text_10">
   <!-- $\log V$ -->
   <g transform="translate(8.964153 73.111818) rotate(-93.911719) scale(0.08 -0.08)">
    <defs>
     <path id="DejaVuSans-Oblique-56" d="M 1319 0 
L 500 4666 
L 1119 4666 
L 1797 653 
L 4063 4666 
L 4750 4666 
L 2053 0 
L 1319 0 
z
" transform="scale(0.015625)"/>
    </defs>
    <use xlink:href="#DejaVuSans-6c" transform="translate(0 0.015625)"/>
    <use xlink:href="#DejaVuSans-6f" transform="translate(27.783203 0.015625)"/>
    <use xlink:href="#DejaVuSans-67" transform="translate(88.964844 0.015625)"/>
    <use xlink:href="#DejaVuSans-Oblique-56" transform="translate(168.677083 0.015625)"/>
   </g>
  </g>
  <g id="text_11">
   <!-- $\beta_V = 0.32$ -->
   <g transform="translate(40.604743 38.013112) rotate(-12.107524) scale(0.08 -0.08)">
    <defs>
     <path id="DejaVuSans-Oblique-3b2" d="M 872 216 
L 572 -1331 
L -6 -1331 
L 928 3478 
Q 1206 4903 2538 4903 
Q 3888 4903 3659 3700 
Q 3503 2844 2894 2531 
Q 3713 2250 3553 1416 
Q 3272 -69 1759 -66 
Q 1097 -63 872 216 
z
M 1019 966 
Q 1259 422 1875 425 
Q 2775 425 2966 1406 
Q 3138 2288 1675 2219 
L 1778 2750 
Q 2909 2731 3106 3750 
Q 3241 4438 2509 4434 
Q 1691 4434 1503 3459 
L 1019 966 
z
" transform="scale(0.015625)"/>
     <path id="DejaVuSans-3d" d="M 678 2906 
L 4684 2906 
L 4684 2381 
L 678 2381 
L 678 2906 
z
M 678 1631 
L 4684 1631 
L 4684 1100 
L 678 1100 
L 678 1631 
z
" transform="scale(0.015625)"/>
     <path id="DejaVuSans-30" d="M 2034 4250 
Q 1547 4250 1301 3770 
Q 1056 3291 1056 2328 
Q 1056 1369 1301 889 
Q 1547 409 2034 409 
Q 2525 409 2770 889 
Q 3016 1369 3016 2328 
Q 3016 3291 2770 3770 
Q 2525 4250 2034 4250 
z
M 2034 4750 
Q 2819 4750 3233 4129 
Q 3647 3509 3647 2328 
Q 3647 1150 3233 529 
Q 2819 -91 2034 -91 
Q 1250 -91 836 529 
Q 422 1150 422 2328 
Q 422 3509 836 4129 
Q 1250 4750 2034 4750 
z
" transform="scale(0.015625)"/>
     <path id="DejaVuSans-2e" d="M 684 794 
L 1344 794 
L 1344 0 
L 684 0 
L 684 794 
z
" transform="scale(0.015625)"/>
     <path id="DejaVuSans-33" d="M 2597 2516 
Q 3050 2419 3304 2112 
Q 3559 1806 3559 1356 
Q 3559 666 3084 287 
Q 2609 -91 1734 -91 
Q 1441 -91 1130 -33 
Q 819 25 488 141 
L 488 750 
Q 750 597 1062 519 
Q 1375 441 1716 441 
Q 2309 441 2620 675 
Q 2931 909 2931 1356 
Q 2931 1769 2642 2001 
Q 2353 2234 1838 2234 
L 1294 2234 
L 1294 2753 
L 1863 2753 
Q 2328 2753 2575 2939 
Q 2822 3125 2822 3475 
Q 2822 3834 2567 4026 
Q 2313 4219 1838 4219 
Q 1578 4219 1281 4162 
Q 984 4106 628 3988 
L 628 4550 
Q 988 4650 1302 4700 
Q 1616 4750 1894 4750 
Q 2613 4750 3031 4423 
Q 3450 4097 3450 3541 
Q 3450 3153 3228 2886 
Q 3006 2619 2597 2516 
z
" transform="scale(0.015625)"/>
     <path id="DejaVuSans-32" d="M 1228 531 
L 3431 531 
L 3431 0 
L 469 0 
L 469 531 
Q 828 903 1448 1529 
Q 2069 2156 2228 2338 
Q 2531 2678 2651 2914 
Q 2772 3150 2772 3378 
Q 2772 3750 2511 3984 
Q 2250 4219 1831 4219 
Q 1534 4219 1204 4116 
Q 875 4013 500 3803 
L 500 4441 
Q 881 4594 1212 4672 
Q 1544 4750 1819 4750 
Q 2544 4750 2975 4387 
Q 3406 4025 3406 3419 
Q 3406 3131 3298 2873 
Q 3191 2616 2906 2266 
Q 2828 2175 2409 1742 
Q 1991 1309 1228 531 
z
" transform="scale(0.015625)"/>
    </defs>
    <use xlink:href="#DejaVuSans-Oblique-3b2" transform="translate(0 0.390625)"/>
    <use xlink:href="#DejaVuSans-Oblique-56" transform="translate(63.818359 -16.015625) scale(0.7)"/>
    <use xlink:href="#DejaVuSans-3d" transform="translate(133.920898 0.390625)"/>
    <use xlink:href="#DejaVuSans-30" transform="translate(237.192383 0.390625)"/>
    <use xlink:href="#DejaVuSans-2e" transform="translate(300.81543 0.390625)"/>
    <use xlink:href="#DejaVuSans-33" transform="translate(332.602539 0.390625)"/>
    <use xlink:href="#DejaVuSans-32" transform="translate(396.225586 0.390625)"/>
   </g>
  </g>
  <g id="text_12">
   <!-- $\beta_A = 0.34$ -->
   <g transform="translate(116.415591 131.4809) rotate(-14.247758) scale(0.08 -0.08)">
    <defs>
     <path id="DejaVuSans-34" d="M 2419 4116 
L 825 1625 
L 2419 1625 
L 2419 4116 
z
M 2253 4666 
L 3047 4666 
L 3047 1625 
L 3713 1625 
L 3713 1100 
L 3047 1100 
L 3047 0 
L 2419 0 
L 2419 1100 
L 313 1100 
L 313 1709 
L 2253 4666 
z
" transform="scale(0.015625)"/>
    </defs>
    <use xlink:href="#DejaVuSans-Oblique-3b2" transform="translate(0 0.390625)"/>
    <use xlink:href="#DejaVuSans-Oblique-41" transform="translate(63.818359 -16.015625) scale(0.7)"/>
    <use xlink:href="#DejaVuSans-3d" transform="translate(133.920898 0.390625)"/>
    <use xlink:href="#DejaVuSans-30" transform="translate(237.192383 0.390625)"/>
    <use xlink:href="#DejaVuSans-2e" transform="translate(300.81543 0.390625)"/>
    <use xlink:href="#DejaVuSans-33" transform="translate(332.602539 0.390625)"/>
    <use xlink:href="#DejaVuSans-34" transform="translate(396.225586 0.390625)"/>
   </g>
  </g>
 </g>
 <defs>
  <clipPath id="p231cb5124c">
   <rect x="20.409449" y="6.80315" width="146.267717" height="146.267717"/>
  </clipPath>
 </defs>
</svg>
