<?xml version="1.0" encoding="utf-8" standalone="no"?>
<!DOCTYPE svg PUBLIC "-//W3C//DTD SVG 1.1//EN"
  "http://www.w3.org/Graphics/SVG/1.1/DTD/svg11.dtd">
<svg xmlns:xlink="http://www.w3.org/1999/xlink" width="170.07874pt" height="170.07874pt" viewBox="0 0 170.07874 170.07874" xmlns="http://www.w3.org/2000/svg" version="1.1">
 <metadata>
  <rdf:RDF xmlns:dc="http://purl.org/dc/elements/1.1/" xmlns:cc="http://creativecommons.org/ns#" xmlns:rdf="http://www.w3.org/1999/02/22-rdf-syntax-ns#">
   <cc:Work>
    <dc:type rdf:resource="http://purl.org/dc/dcmitype/StillImage"/>
    <dc:date>2026-03-16T22:50:41.104307</dc:date>
    <dc:format>image/svg+xml</dc:format>
    <dc:creator>
     <cc:Agent>
      <dc:title>Matplotlib v3.7.2, https://matplotlib.org/</dc:title>
     </cc:Agent>
    </dc:creator>
   </cc:Work>
  </rdf:RDF>
 </metadata>
 <defs>
  <style type="text/css">*{stroke-linejoin: round; stroke-linecap: butt}</style>
 </defs>
 <g id="figure_1">
  <g id="patch_1">
   <path d="M 0 170.07874 
L 170.07874 170.07874 
L 170.07874 0 
L 0 0 
z
" style="fill: #ffffff"/>
  </g>
  <g id="patch_2">
   <path d="M 20.409449 153.070866 
L 166.677165 153.070866 
L 166.677165 6.80315 
L 20.409449 6.80315 
z
" style="fill: #ffffff"/>
  </g>
  <g id="axes_1">
   <g id="line2d_1">
    <path d="M 79.249225 119.722045 
L 91.212185 108.398049 
L 91.212185 108.398049 
" clip-path="url(#p511f7b00fd)" style="fill: none; stroke-dasharray: 2.96,1.28; stroke-dashoffset: 0; stroke: #000000; stroke-opacity: 0.5; stroke-width: 0.8"/>
   </g>
   <g id="line2d_2">
    <path d="M 62.737397 66.479082 
L 78.263632 54.472644 
L 78.263632 54.472644 
" clip-path="url(#p511f7b00fd)" style="fill: none; stroke-dasharray: 2.96,1.28; stroke-dashoffset: 0; stroke: #000000; stroke-opacity: 0.5; stroke-width: 0.8"/>
   </g>
   <g id="line2d_3">
    <path d="M 78.840427 97.097589 
L 91.065412 77.330748 
L 91.065412 77.330748 
" clip-path="url(#p511f7b00fd)" style="fill: none; stroke: #000000; stroke-opacity: 0.9; stroke-linecap: square"/>
   </g>
   <g id="Path3DCollection_1">
    <defs>
     <path id="C0_0_b6166391c4" d="M -1.414214 1.414214 
L 1.414214 1.414214 
L 1.414214 -1.414214 
L -1.414214 -1.414214 
z
"/>
    </defs>
    <g clip-path="url(#p511f7b00fd)">
     <use xlink:href="#C0_0_b6166391c4" x="65.16771" y="65.137697" style="fill: #808080; fill-opacity: 0.5"/>
    </g>
    <g clip-path="url(#p511f7b00fd)">
     <use xlink:href="#C0_0_b6166391c4" x="62.715583" y="66.503416" style="fill: #808080; fill-opacity: 0.5"/>
    </g>
    <g clip-path="url(#p511f7b00fd)">
     <use xlink:href="#C0_0_b6166391c4" x="66.122619" y="64.113486" style="fill: #808080; fill-opacity: 0.5"/>
    </g>
    <g clip-path="url(#p511f7b00fd)">
     <use xlink:href="#C0_0_b6166391c4" x="67.135567" y="63.088388" style="fill: #808080; fill-opacity: 0.5"/>
    </g>
    <g clip-path="url(#p511f7b00fd)">
     <use xlink:href="#C0_0_b6166391c4" x="69.425424" y="61.116891" style="fill: #808080; fill-opacity: 0.5"/>
    </g>
    <g clip-path="url(#p511f7b00fd)">
     <use xlink:href="#C0_0_b6166391c4" x="71.662715" y="59.1483" style="fill: #808080; fill-opacity: 0.5"/>
    </g>
    <g clip-path="url(#p511f7b00fd)">
     <use xlink:href="#C0_0_b6166391c4" x="79.375049" y="54.711318" style="fill: #808080; fill-opacity: 0.5"/>
    </g>
    <g clip-path="url(#p511f7b00fd)">
     <use xlink:href="#C0_0_b6166391c4" x="78.195392" y="55.047642" style="fill: #808080; fill-opacity: 0.5"/>
    </g>
    <g clip-path="url(#p511f7b00fd)">
     <use xlink:href="#C0_0_b6166391c4" x="72.724286" y="58.137721" style="fill: #808080; fill-opacity: 0.5"/>
    </g>
    <g clip-path="url(#p511f7b00fd)">
     <use xlink:href="#C0_0_b6166391c4" x="75.947542" y="55.92755" style="fill: #808080; fill-opacity: 0.5"/>
    </g>
    <g clip-path="url(#p511f7b00fd)">
     <use xlink:href="#C0_0_b6166391c4" x="73.730443" y="57.120909" style="fill: #808080; fill-opacity: 0.5"/>
    </g>
   </g>
   <g id="text_1">
    <!-- 5 -->
    <g transform="translate(58.086944 161.590847) scale(0.07 -0.07)">
     <defs>
      <path id="ArialMT-35" d="M 266 1200 
L 856 1250 
Q 922 819 1161 601 
Q 1400 384 1738 384 
Q 2144 384 2425 690 
Q 2706 997 2706 1503 
Q 2706 1984 2436 2262 
Q 2166 2541 1728 2541 
Q 1456 2541 1237 2417 
Q 1019 2294 894 2097 
L 366 2166 
L 809 4519 
L 3088 4519 
L 3088 3981 
L 1259 3981 
L 1013 2750 
Q 1425 3038 1878 3038 
Q 2478 3038 2890 2622 
Q 3303 2206 3303 1553 
Q 3303 931 2941 478 
Q 2500 -78 1738 -78 
Q 1113 -78 717 272 
Q 322 622 266 1200 
z
" transform="scale(0.015625)"/>
     </defs>
     <use xlink:href="#ArialMT-35"/>
    </g>
   </g>
   <g id="text_2">
    <!-- 6 -->
    <g transform="translate(128.250036 143.457438) scale(0.07 -0.07)">
     <defs>
      <path id="ArialMT-36" d="M 3184 3459 
L 2625 3416 
Q 2550 3747 2413 3897 
Q 2184 4138 1850 4138 
Q 1581 4138 1378 3988 
Q 1113 3794 959 3422 
Q 806 3050 800 2363 
Q 1003 2672 1297 2822 
Q 1591 2972 1913 2972 
Q 2475 2972 2870 2558 
Q 3266 2144 3266 1488 
Q 3266 1056 3080 686 
Q 2894 316 2569 119 
Q 2244 -78 1831 -78 
Q 1128 -78 684 439 
Q 241 956 241 2144 
Q 241 3472 731 4075 
Q 1159 4600 1884 4600 
Q 2425 4600 2770 4297 
Q 3116 3994 3184 3459 
z
M 888 1484 
Q 888 1194 1011 928 
Q 1134 663 1356 523 
Q 1578 384 1822 384 
Q 2178 384 2434 671 
Q 2691 959 2691 1453 
Q 2691 1928 2437 2201 
Q 2184 2475 1800 2475 
Q 1419 2475 1153 2201 
Q 888 1928 888 1484 
z
" transform="scale(0.015625)"/>
     </defs>
     <use xlink:href="#ArialMT-36"/>
    </g>
   </g>
   <g id="text_3">
    <!-- 7 -->
    <g transform="translate(44.762611 156.3181) scale(0.07 -0.07)">
     <defs>
      <path id="ArialMT-37" d="M 303 3981 
L 303 4522 
L 3269 4522 
L 3269 4084 
Q 2831 3619 2401 2847 
Q 1972 2075 1738 1259 
Q 1569 684 1522 0 
L 944 0 
Q 953 541 1156 1306 
Q 1359 2072 1739 2783 
Q 2119 3494 2547 3981 
L 303 3981 
z
" transform="scale(0.015625)"/>
     </defs>
     <use xlink:href="#ArialMT-37"/>
    </g>
   </g>
   <g id="text_4">
    <!-- 8 -->
    <g transform="translate(27.650221 117.805157) scale(0.07 -0.07)">
     <defs>
      <path id="ArialMT-38" d="M 1131 2484 
Q 781 2613 612 2850 
Q 444 3088 444 3419 
Q 444 3919 803 4259 
Q 1163 4600 1759 4600 
Q 2359 4600 2725 4251 
Q 3091 3903 3091 3403 
Q 3091 3084 2923 2848 
Q 2756 2613 2416 2484 
Q 2838 2347 3058 2040 
Q 3278 1734 3278 1309 
Q 3278 722 2862 322 
Q 2447 -78 1769 -78 
Q 1091 -78 675 323 
Q 259 725 259 1325 
Q 259 1772 486 2073 
Q 713 2375 1131 2484 
z
M 1019 3438 
Q 1019 3113 1228 2906 
Q 1438 2700 1772 2700 
Q 2097 2700 2305 2904 
Q 2513 3109 2513 3406 
Q 2513 3716 2298 3927 
Q 2084 4138 1766 4138 
Q 1444 4138 1231 3931 
Q 1019 3725 1019 3438 
z
M 838 1322 
Q 838 1081 952 856 
Q 1066 631 1291 507 
Q 1516 384 1775 384 
Q 2178 384 2440 643 
Q 2703 903 2703 1303 
Q 2703 1709 2433 1975 
Q 2163 2241 1756 2241 
Q 1359 2241 1098 1978 
Q 838 1716 838 1322 
z
" transform="scale(0.015625)"/>
     </defs>
     <use xlink:href="#ArialMT-38"/>
    </g>
   </g>
   <g id="text_5">
    <!-- 8 -->
    <g transform="translate(19.417983 95.818585) scale(0.07 -0.07)">
     <use xlink:href="#ArialMT-38"/>
    </g>
   </g>
   <g id="text_6">
    <!-- 9 -->
    <g transform="translate(16.334586 56.269262) scale(0.07 -0.07)">
     <defs>
      <path id="ArialMT-39" d="M 350 1059 
L 891 1109 
Q 959 728 1153 556 
Q 1347 384 1650 384 
Q 1909 384 2104 503 
Q 2300 622 2425 820 
Q 2550 1019 2634 1356 
Q 2719 1694 2719 2044 
Q 2719 2081 2716 2156 
Q 2547 1888 2255 1720 
Q 1963 1553 1622 1553 
Q 1053 1553 659 1965 
Q 266 2378 266 3053 
Q 266 3750 677 4175 
Q 1088 4600 1706 4600 
Q 2153 4600 2523 4359 
Q 2894 4119 3086 3673 
Q 3278 3228 3278 2384 
Q 3278 1506 3087 986 
Q 2897 466 2520 194 
Q 2144 -78 1638 -78 
Q 1100 -78 759 220 
Q 419 519 350 1059 
z
M 2653 3081 
Q 2653 3566 2395 3850 
Q 2138 4134 1775 4134 
Q 1400 4134 1122 3828 
Q 844 3522 844 3034 
Q 844 2597 1108 2323 
Q 1372 2050 1759 2050 
Q 2150 2050 2401 2323 
Q 2653 2597 2653 3081 
z
" transform="scale(0.015625)"/>
     </defs>
     <use xlink:href="#ArialMT-39"/>
    </g>
   </g>
   <g id="Path3DCollection_2">
    <defs>
     <path id="C1_0_f18de596d8" d="M -1.414214 1.414214 
L 1.414214 1.414214 
L 1.414214 -1.414214 
L -1.414214 -1.414214 
z
"/>
    </defs>
    <g clip-path="url(#p511f7b00fd)">
     <use xlink:href="#C1_0_f18de596d8" x="92.480071" y="108.441883" style="fill: #808080; fill-opacity: 0.5"/>
    </g>
    <g clip-path="url(#p511f7b00fd)">
     <use xlink:href="#C1_0_f18de596d8" x="91.393111" y="108.901055" style="fill: #808080; fill-opacity: 0.5"/>
    </g>
    <g clip-path="url(#p511f7b00fd)">
     <use xlink:href="#C1_0_f18de596d8" x="89.315563" y="109.778809" style="fill: #808080; fill-opacity: 0.5"/>
    </g>
    <g clip-path="url(#p511f7b00fd)">
     <use xlink:href="#C1_0_f18de596d8" x="87.408534" y="110.93759" style="fill: #808080; fill-opacity: 0.5"/>
    </g>
    <g clip-path="url(#p511f7b00fd)">
     <use xlink:href="#C1_0_f18de596d8" x="86.750402" y="111.88663" style="fill: #808080; fill-opacity: 0.5"/>
    </g>
    <g clip-path="url(#p511f7b00fd)">
     <use xlink:href="#C1_0_f18de596d8" x="86.024249" y="112.832748" style="fill: #808080; fill-opacity: 0.5"/>
    </g>
    <g clip-path="url(#p511f7b00fd)">
     <use xlink:href="#C1_0_f18de596d8" x="84.396998" y="114.658515" style="fill: #808080; fill-opacity: 0.5"/>
    </g>
    <g clip-path="url(#p511f7b00fd)">
     <use xlink:href="#C1_0_f18de596d8" x="82.698459" y="116.494911" style="fill: #808080; fill-opacity: 0.5"/>
    </g>
    <g clip-path="url(#p511f7b00fd)">
     <use xlink:href="#C1_0_f18de596d8" x="82.002744" y="117.436511" style="fill: #808080; fill-opacity: 0.5"/>
    </g>
    <g clip-path="url(#p511f7b00fd)">
     <use xlink:href="#C1_0_f18de596d8" x="81.367972" y="118.376872" style="fill: #808080; fill-opacity: 0.5"/>
    </g>
    <g clip-path="url(#p511f7b00fd)">
     <use xlink:href="#C1_0_f18de596d8" x="79.211341" y="119.698132" style="fill: #808080; fill-opacity: 0.5"/>
    </g>
   </g>
   <g id="Poly3DCollection_1">
    <path d="M 90.172339 78.50294 
L 93.600664 77.701719 
L 93.596108 75.464178 
L 90.159628 76.264594 
z
" clip-path="url(#p511f7b00fd)" style="fill: #1f77b4; fill-opacity: 0.5"/>
    <path d="M 91.158328 80.270831 
L 94.594578 79.465341 
L 93.600664 77.701719 
L 90.172339 78.50294 
z
" clip-path="url(#p511f7b00fd)" style="fill: #1f77b4; fill-opacity: 0.5"/>
    <path d="M 89.049968 79.028031 
L 92.481725 78.225691 
L 92.474508 75.988037 
L 89.03458 76.789574 
z
" clip-path="url(#p511f7b00fd)" style="fill: #1f77b4; fill-opacity: 0.5"/>
    <path d="M 94.594578 79.465341 
L 93.600664 77.701719 
L 93.596108 75.464178 
L 94.592375 77.226033 
z
" clip-path="url(#p511f7b00fd)" style="fill: #1f77b4; fill-opacity: 0.5"/>
    <path d="M 90.033566 80.798396 
L 93.473264 79.991778 
L 92.481725 78.225691 
L 89.049968 79.028031 
z
" clip-path="url(#p511f7b00fd)" style="fill: #1f77b4; fill-opacity: 0.5"/>
    <path d="M 93.473264 79.991778 
L 92.481725 78.225691 
L 92.474508 75.988037 
L 93.468389 77.752361 
z
" clip-path="url(#p511f7b00fd)" style="fill: #1f77b4; fill-opacity: 0.5"/>
    <path d="M 86.90728 80.271387 
L 90.34472 79.466821 
L 90.332416 77.230095 
L 86.886778 78.033864 
z
" clip-path="url(#p511f7b00fd)" style="fill: #1f77b4; fill-opacity: 0.5"/>
    <path d="M 87.886055 82.046669 
L 91.331464 81.237809 
L 90.34472 79.466821 
L 86.90728 80.271387 
z
" clip-path="url(#p511f7b00fd)" style="fill: #1f77b4; fill-opacity: 0.5"/>
    <path d="M 91.158328 80.270831 
L 90.172339 78.50294 
L 90.159628 76.264594 
L 91.147933 78.030724 
z
" clip-path="url(#p511f7b00fd)" style="fill: #1f77b4; fill-opacity: 0.5"/>
    <path d="M 91.331464 81.237809 
L 90.34472 79.466821 
L 90.332416 77.230095 
L 91.321479 78.999334 
z
" clip-path="url(#p511f7b00fd)" style="fill: #1f77b4; fill-opacity: 0.5"/>
    <path d="M 84.944509 82.113668 
L 88.387667 81.306091 
L 88.370693 79.071562 
L 84.91931 79.878351 
z
" clip-path="url(#p511f7b00fd)" style="fill: #1f77b4; fill-opacity: 0.5"/>
    <path d="M 91.147933 78.030724 
L 94.592375 77.226033 
L 93.596108 75.464178 
L 90.159628 76.264594 
z
" clip-path="url(#p511f7b00fd)" style="fill: #1f77b4; fill-opacity: 0.5"/>
    <path d="M 90.033566 80.798396 
L 89.049968 79.028031 
L 89.03458 76.789574 
L 90.020483 78.558182 
z
" clip-path="url(#p511f7b00fd)" style="fill: #1f77b4; fill-opacity: 0.5"/>
    <path d="M 85.919 83.895602 
L 89.370156 83.08371 
L 88.387667 81.306091 
L 84.944509 82.113668 
z
" clip-path="url(#p511f7b00fd)" style="fill: #1f77b4; fill-opacity: 0.5"/>
    <path d="M 91.158328 80.270831 
L 94.594578 79.465341 
L 94.592375 77.226033 
L 91.147933 78.030724 
z
" clip-path="url(#p511f7b00fd)" style="fill: #1f77b4; fill-opacity: 0.5"/>
    <path d="M 84.272403 83.844811 
L 87.718287 83.03469 
L 87.699709 80.803033 
L 84.245587 81.612375 
z
" clip-path="url(#p511f7b00fd)" style="fill: #1f77b4; fill-opacity: 0.5"/>
    <path d="M 90.020483 78.558182 
L 93.468389 77.752361 
L 92.474508 75.988037 
L 89.03458 76.789574 
z
" clip-path="url(#p511f7b00fd)" style="fill: #1f77b4; fill-opacity: 0.5"/>
    <path d="M 85.245642 85.632362 
L 88.699537 84.817911 
L 87.718287 83.03469 
L 84.272403 83.844811 
z
" clip-path="url(#p511f7b00fd)" style="fill: #1f77b4; fill-opacity: 0.5"/>
    <path d="M 89.370156 83.08371 
L 88.387667 81.306091 
L 88.370693 79.071562 
L 89.355481 80.847452 
z
" clip-path="url(#p511f7b00fd)" style="fill: #1f77b4; fill-opacity: 0.5"/>
    <path d="M 90.033566 80.798396 
L 93.473264 79.991778 
L 93.468389 77.752361 
L 90.020483 78.558182 
z
" clip-path="url(#p511f7b00fd)" style="fill: #1f77b4; fill-opacity: 0.5"/>
    <path d="M 87.886055 82.046669 
L 86.90728 80.271387 
L 86.886778 78.033864 
L 87.867834 79.807403 
z
" clip-path="url(#p511f7b00fd)" style="fill: #1f77b4; fill-opacity: 0.5"/>
    <path d="M 83.531207 85.554359 
L 86.979943 84.741708 
L 86.959596 82.51285 
L 83.502608 83.324731 
z
" clip-path="url(#p511f7b00fd)" style="fill: #1f77b4; fill-opacity: 0.5"/>
    <path d="M 84.50302 87.347496 
L 87.959781 86.530499 
L 86.979943 84.741708 
L 83.531207 85.554359 
z
" clip-path="url(#p511f7b00fd)" style="fill: #1f77b4; fill-opacity: 0.5"/>
    <path d="M 88.699537 84.817911 
L 87.718287 83.03469 
L 87.699709 80.803033 
L 88.683253 82.584544 
z
" clip-path="url(#p511f7b00fd)" style="fill: #1f77b4; fill-opacity: 0.5"/>
    <path d="M 87.867834 79.807403 
L 91.321479 78.999334 
L 90.332416 77.230095 
L 86.886778 78.033864 
z
" clip-path="url(#p511f7b00fd)" style="fill: #1f77b4; fill-opacity: 0.5"/>
    <path d="M 87.886055 82.046669 
L 91.331464 81.237809 
L 91.321479 78.999334 
L 87.867834 79.807403 
z
" clip-path="url(#p511f7b00fd)" style="fill: #1f77b4; fill-opacity: 0.5"/>
    <path d="M 87.959781 86.530499 
L 86.979943 84.741708 
L 86.959596 82.51285 
L 87.94172 84.299951 
z
" clip-path="url(#p511f7b00fd)" style="fill: #1f77b4; fill-opacity: 0.5"/>
    <path d="M 85.919 83.895602 
L 84.944509 82.113668 
L 84.91931 79.878351 
L 85.896062 81.658561 
z
" clip-path="url(#p511f7b00fd)" style="fill: #1f77b4; fill-opacity: 0.5"/>
    <path d="M 81.871832 88.829183 
L 85.326404 88.01166 
L 85.30209 85.788124 
L 81.839238 86.604894 
z
" clip-path="url(#p511f7b00fd)" style="fill: #1f77b4; fill-opacity: 0.5"/>
    <path d="M 82.840288 90.633077 
L 86.302913 89.811177 
L 85.326404 88.01166 
L 81.871832 88.829183 
z
" clip-path="url(#p511f7b00fd)" style="fill: #1f77b4; fill-opacity: 0.5"/>
    <path d="M 85.245642 85.632362 
L 84.272403 83.844811 
L 84.245587 81.612375 
L 85.221081 83.398223 
z
" clip-path="url(#p511f7b00fd)" style="fill: #1f77b4; fill-opacity: 0.5"/>
    <path d="M 85.896062 81.658561 
L 89.355481 80.847452 
L 88.370693 79.071562 
L 84.91931 79.878351 
z
" clip-path="url(#p511f7b00fd)" style="fill: #1f77b4; fill-opacity: 0.5"/>
    <path d="M 85.919 83.895602 
L 89.370156 83.08371 
L 89.355481 80.847452 
L 85.896062 81.658561 
z
" clip-path="url(#p511f7b00fd)" style="fill: #1f77b4; fill-opacity: 0.5"/>
    <path d="M 86.302913 89.811177 
L 85.326404 88.01166 
L 85.30209 85.788124 
L 86.280869 87.585989 
z
" clip-path="url(#p511f7b00fd)" style="fill: #1f77b4; fill-opacity: 0.5"/>
    <path d="M 84.50302 87.347496 
L 83.531207 85.554359 
L 83.502608 83.324731 
L 84.476669 85.116184 
z
" clip-path="url(#p511f7b00fd)" style="fill: #1f77b4; fill-opacity: 0.5"/>
    <path d="M 85.221081 83.398223 
L 88.683253 82.584544 
L 87.699709 80.803033 
L 84.245587 81.612375 
z
" clip-path="url(#p511f7b00fd)" style="fill: #1f77b4; fill-opacity: 0.5"/>
    <path d="M 85.245642 85.632362 
L 88.699537 84.817911 
L 88.683253 82.584544 
L 85.221081 83.398223 
z
" clip-path="url(#p511f7b00fd)" style="fill: #1f77b4; fill-opacity: 0.5"/>
    <path d="M 80.144282 92.105416 
L 83.604817 91.283002 
L 83.576364 89.064783 
L 80.107521 89.886461 
z
" clip-path="url(#p511f7b00fd)" style="fill: #1f77b4; fill-opacity: 0.5"/>
    <path d="M 81.109199 93.920111 
L 84.577816 93.093288 
L 83.604817 91.283002 
L 80.144282 92.105416 
z
" clip-path="url(#p511f7b00fd)" style="fill: #1f77b4; fill-opacity: 0.5"/>
    <path d="M 84.476669 85.116184 
L 87.94172 84.299951 
L 86.959596 82.51285 
L 83.502608 83.324731 
z
" clip-path="url(#p511f7b00fd)" style="fill: #1f77b4; fill-opacity: 0.5"/>
    <path d="M 84.50302 87.347496 
L 87.959781 86.530499 
L 87.94172 84.299951 
L 84.476669 85.116184 
z
" clip-path="url(#p511f7b00fd)" style="fill: #1f77b4; fill-opacity: 0.5"/>
    <path d="M 79.44101 93.836143 
L 82.904174 93.011205 
L 82.874033 90.795975 
L 79.402548 91.620186 
z
" clip-path="url(#p511f7b00fd)" style="fill: #1f77b4; fill-opacity: 0.5"/>
    <path d="M 80.404539 95.65641 
L 83.875799 94.827048 
L 82.904174 93.011205 
L 79.44101 93.836143 
z
" clip-path="url(#p511f7b00fd)" style="fill: #1f77b4; fill-opacity: 0.5"/>
    <path d="M 84.577816 93.093288 
L 83.604817 91.283002 
L 83.576364 89.064783 
L 84.551617 90.873456 
z
" clip-path="url(#p511f7b00fd)" style="fill: #1f77b4; fill-opacity: 0.5"/>
    <path d="M 82.840288 90.633077 
L 81.871832 88.829183 
L 81.839238 86.604894 
L 82.809926 88.407142 
z
" clip-path="url(#p511f7b00fd)" style="fill: #1f77b4; fill-opacity: 0.5"/>
    <path d="M 78.801586 95.577984 
L 82.267236 94.750523 
L 82.235558 92.538355 
L 78.761575 93.365099 
z
" clip-path="url(#p511f7b00fd)" style="fill: #1f77b4; fill-opacity: 0.5"/>
    <path d="M 79.763878 97.403823 
L 83.237636 96.571922 
L 82.267236 94.750523 
L 78.801586 95.577984 
z
" clip-path="url(#p511f7b00fd)" style="fill: #1f77b4; fill-opacity: 0.5"/>
    <path d="M 83.875799 94.827048 
L 82.904174 93.011205 
L 82.874033 90.795975 
L 83.847904 92.610225 
z
" clip-path="url(#p511f7b00fd)" style="fill: #1f77b4; fill-opacity: 0.5"/>
    <path d="M 82.809926 88.407142 
L 86.280869 87.585989 
L 85.30209 85.788124 
L 81.839238 86.604894 
z
" clip-path="url(#p511f7b00fd)" style="fill: #1f77b4; fill-opacity: 0.5"/>
    <path d="M 82.840288 90.633077 
L 86.302913 89.811177 
L 86.280869 87.585989 
L 82.809926 88.407142 
z
" clip-path="url(#p511f7b00fd)" style="fill: #1f77b4; fill-opacity: 0.5"/>
    <path d="M 83.237636 96.571922 
L 82.267236 94.750523 
L 82.235558 92.538355 
L 83.208198 94.358182 
z
" clip-path="url(#p511f7b00fd)" style="fill: #1f77b4; fill-opacity: 0.5"/>
    <path d="M 81.109199 93.920111 
L 80.144282 92.105416 
L 80.107521 89.886461 
L 81.074652 91.69955 
z
" clip-path="url(#p511f7b00fd)" style="fill: #1f77b4; fill-opacity: 0.5"/>
    <path d="M 76.604837 97.698617 
L 80.076765 96.867716 
L 80.039812 94.658306 
L 76.559521 95.488501 
z
" clip-path="url(#p511f7b00fd)" style="fill: #1f77b4; fill-opacity: 0.5"/>
    <path d="M 77.562239 99.532055 
L 81.042306 98.69669 
L 80.076765 96.867716 
L 76.604837 97.698617 
z
" clip-path="url(#p511f7b00fd)" style="fill: #1f77b4; fill-opacity: 0.5"/>
    <path d="M 80.404539 95.65641 
L 79.44101 93.836143 
L 79.402548 91.620186 
L 80.368285 93.438867 
z
" clip-path="url(#p511f7b00fd)" style="fill: #1f77b4; fill-opacity: 0.5"/>
    <path d="M 81.074652 91.69955 
L 84.551617 90.873456 
L 83.576364 89.064783 
L 80.107521 89.886461 
z
" clip-path="url(#p511f7b00fd)" style="fill: #1f77b4; fill-opacity: 0.5"/>
    <path d="M 81.109199 93.920111 
L 84.577816 93.093288 
L 84.551617 90.873456 
L 81.074652 91.69955 
z
" clip-path="url(#p511f7b00fd)" style="fill: #1f77b4; fill-opacity: 0.5"/>
    <path d="M 81.042306 98.69669 
L 80.076765 96.867716 
L 80.039812 94.658306 
L 81.00757 96.485732 
z
" clip-path="url(#p511f7b00fd)" style="fill: #1f77b4; fill-opacity: 0.5"/>
    <path d="M 79.763878 97.403823 
L 78.801586 95.577984 
L 78.761575 93.365099 
L 79.726069 95.189372 
z
" clip-path="url(#p511f7b00fd)" style="fill: #1f77b4; fill-opacity: 0.5"/>
    <path d="M 80.368285 93.438867 
L 83.847904 92.610225 
L 82.874033 90.795975 
L 79.402548 91.620186 
z
" clip-path="url(#p511f7b00fd)" style="fill: #1f77b4; fill-opacity: 0.5"/>
    <path d="M 80.404539 95.65641 
L 83.875799 94.827048 
L 83.847904 92.610225 
L 80.368285 93.438867 
z
" clip-path="url(#p511f7b00fd)" style="fill: #1f77b4; fill-opacity: 0.5"/>
    <path d="M 79.726069 95.189372 
L 83.208198 94.358182 
L 82.235558 92.538355 
L 78.761575 93.365099 
z
" clip-path="url(#p511f7b00fd)" style="fill: #1f77b4; fill-opacity: 0.5"/>
    <path d="M 79.763878 97.403823 
L 83.237636 96.571922 
L 83.208198 94.358182 
L 79.726069 95.189372 
z
" clip-path="url(#p511f7b00fd)" style="fill: #1f77b4; fill-opacity: 0.5"/>
    <path d="M 77.562239 99.532055 
L 76.604837 97.698617 
L 76.559521 95.488501 
L 77.519101 97.320397 
z
" clip-path="url(#p511f7b00fd)" style="fill: #1f77b4; fill-opacity: 0.5"/>
    <path d="M 77.519101 97.320397 
L 81.00757 96.485732 
L 80.039812 94.658306 
L 76.559521 95.488501 
z
" clip-path="url(#p511f7b00fd)" style="fill: #1f77b4; fill-opacity: 0.5"/>
    <path d="M 77.562239 99.532055 
L 81.042306 98.69669 
L 81.00757 96.485732 
L 77.519101 97.320397 
z
" clip-path="url(#p511f7b00fd)" style="fill: #1f77b4; fill-opacity: 0.5"/>
   </g>
   <g id="Line3DCollection_1">
    <path d="M 32.334969 96.159277 
L 65.306533 88.406538 
L 97.536496 80.828175 
L 129.049602 73.41837 
" clip-path="url(#p511f7b00fd)" style="fill: none; stroke: #000000; stroke-opacity: 0.22; stroke-width: 0.2"/>
    <path d="M 30.875268 74.811944 
L 64.616662 67.130532 
L 97.582013 59.625792 
L 129.797788 52.291696 
" clip-path="url(#p511f7b00fd)" style="fill: none; stroke: #000000; stroke-opacity: 0.22; stroke-width: 0.2"/>
    <path d="M 29.346527 52.454951 
L 63.894551 44.860221 
L 97.629631 37.444201 
L 130.580125 30.200658 
" clip-path="url(#p511f7b00fd)" style="fill: none; stroke: #000000; stroke-opacity: 0.22; stroke-width: 0.2"/>
    <path d="M 27.74373 29.014933 
L 63.137886 21.524234 
L 97.6795 14.213965 
L 131.399008 7.077683 
" clip-path="url(#p511f7b00fd)" style="fill: none; stroke: #000000; stroke-opacity: 0.22; stroke-width: 0.2"/>
    <path d="M 32.334969 96.159277 
L 30.875268 74.811944 
L 29.346527 52.454951 
L 27.74373 29.014933 
" clip-path="url(#p511f7b00fd)" style="fill: none; stroke: #000000; stroke-opacity: 0.22; stroke-width: 0.2"/>
    <path d="M 65.306533 88.406538 
L 64.616662 67.130532 
L 63.894551 44.860221 
L 63.137886 21.524234 
" clip-path="url(#p511f7b00fd)" style="fill: none; stroke: #000000; stroke-opacity: 0.22; stroke-width: 0.2"/>
    <path d="M 97.536496 80.828175 
L 97.582013 59.625792 
L 97.629631 37.444201 
L 97.6795 14.213965 
" clip-path="url(#p511f7b00fd)" style="fill: none; stroke: #000000; stroke-opacity: 0.22; stroke-width: 0.2"/>
    <path d="M 129.049602 73.41837 
L 129.797788 52.291696 
L 130.580125 30.200658 
L 131.399008 7.077683 
" clip-path="url(#p511f7b00fd)" style="fill: none; stroke: #000000; stroke-opacity: 0.22; stroke-width: 0.2"/>
   </g>
   <g id="Line3DCollection_2">
    <path d="M 57.985493 152.11335 
L 93.314996 143.043997 
L 127.786219 134.194971 
L 161.43006 125.55834 
" clip-path="url(#p511f7b00fd)" style="fill: none; stroke: #000000; stroke-opacity: 0.22; stroke-width: 0.2"/>
    <path d="M 48.979861 132.468456 
L 83.48747 123.872968 
L 117.178565 115.480866 
L 150.081786 107.285014 
" clip-path="url(#p511f7b00fd)" style="fill: none; stroke: #000000; stroke-opacity: 0.22; stroke-width: 0.2"/>
    <path d="M 40.441502 113.842874 
L 74.163915 105.68506 
L 107.108615 97.715382 
L 139.302201 89.927407 
" clip-path="url(#p511f7b00fd)" style="fill: none; stroke: #000000; stroke-opacity: 0.22; stroke-width: 0.2"/>
    <path d="M 32.334969 96.159277 
L 65.306533 88.406538 
L 97.536496 80.828175 
L 129.049602 73.41837 
" clip-path="url(#p511f7b00fd)" style="fill: none; stroke: #000000; stroke-opacity: 0.22; stroke-width: 0.2"/>
    <path d="M 57.985493 152.11335 
L 48.979861 132.468456 
L 40.441502 113.842874 
L 32.334969 96.159277 
" clip-path="url(#p511f7b00fd)" style="fill: none; stroke: #000000; stroke-opacity: 0.22; stroke-width: 0.2"/>
    <path d="M 93.314996 143.043997 
L 83.48747 123.872968 
L 74.163915 105.68506 
L 65.306533 88.406538 
" clip-path="url(#p511f7b00fd)" style="fill: none; stroke: #000000; stroke-opacity: 0.22; stroke-width: 0.2"/>
    <path d="M 127.786219 134.194971 
L 117.178565 115.480866 
L 107.108615 97.715382 
L 97.536496 80.828175 
" clip-path="url(#p511f7b00fd)" style="fill: none; stroke: #000000; stroke-opacity: 0.22; stroke-width: 0.2"/>
    <path d="M 161.43006 125.55834 
L 150.081786 107.285014 
L 139.302201 89.927407 
L 129.049602 73.41837 
" clip-path="url(#p511f7b00fd)" style="fill: none; stroke: #000000; stroke-opacity: 0.22; stroke-width: 0.2"/>
   </g>
   <g id="line2d_4">
    <path d="M 57.985493 152.11335 
L 161.43006 125.55834 
" clip-path="url(#p511f7b00fd)" style="fill: none; stroke: #000000; stroke-width: 0.2; stroke-linecap: square"/>
   </g>
   <g id="line2d_5">
    <path d="M 57.985493 152.11335 
L 32.334969 96.159277 
" clip-path="url(#p511f7b00fd)" style="fill: none; stroke: #000000; stroke-width: 0.2; stroke-linecap: square"/>
   </g>
   <g id="line2d_6">
    <path d="M 32.334969 96.159277 
L 27.74373 29.014933 
" clip-path="url(#p511f7b00fd)" style="fill: none; stroke: #000000; stroke-width: 0.2; stroke-linecap: square"/>
   </g>
   <g id="line2d_7">
    <path d="M 57.985493 152.11335 
L 58.913237 154.137132 
" clip-path="url(#p511f7b00fd)" style="fill: none"/>
   </g>
   <g id="line2d_8">
    <path d="M 127.786219 134.194971 
L 128.87822 136.121489 
" clip-path="url(#p511f7b00fd)" style="fill: none"/>
   </g>
   <g id="line2d_9">
    <path d="M 57.985493 152.11335 
L 54.404101 153.032721 
" clip-path="url(#p511f7b00fd)" style="fill: none"/>
   </g>
   <g id="line2d_10">
    <path d="M 40.441502 113.842874 
L 37.025425 114.66926 
" clip-path="url(#p511f7b00fd)" style="fill: none"/>
   </g>
   <g id="line2d_11">
    <path d="M 32.334969 96.159277 
L 28.996038 96.944373 
" clip-path="url(#p511f7b00fd)" style="fill: none"/>
   </g>
   <g id="line2d_12">
    <path d="M 29.346527 52.454951 
L 25.84588 53.224502 
" clip-path="url(#p511f7b00fd)" style="fill: none"/>
   </g>
  </g>
  <g id="text_7">
   <!-- $\log P$ -->
   <g transform="translate(102.33062 159.80095) rotate(-14.397381) scale(0.08 -0.08)">
    <defs>
     <path id="DejaVuSans-6c" d="M 603 4863 
L 1178 4863 
L 1178 0 
L 603 0 
L 603 4863 
z
" transform="scale(0.015625)"/>
     <path id="DejaVuSans-6f" d="M 1959 3097 
Q 1497 3097 1228 2736 
Q 959 2375 959 1747 
Q 959 1119 1226 758 
Q 1494 397 1959 397 
Q 2419 397 2687 759 
Q 2956 1122 2956 1747 
Q 2956 2369 2687 2733 
Q 2419 3097 1959 3097 
z
M 1959 3584 
Q 2709 3584 3137 3096 
Q 3566 2609 3566 1747 
Q 3566 888 3137 398 
Q 2709 -91 1959 -91 
Q 1206 -91 779 398 
Q 353 888 353 1747 
Q 353 2609 779 3096 
Q 1206 3584 1959 3584 
z
" transform="scale(0.015625)"/>
     <path id="DejaVuSans-67" d="M 2906 1791 
Q 2906 2416 2648 2759 
Q 2391 3103 1925 3103 
Q 1463 3103 1205 2759 
Q 947 2416 947 1791 
Q 947 1169 1205 825 
Q 1463 481 1925 481 
Q 2391 481 2648 825 
Q 2906 1169 2906 1791 
z
M 3481 434 
Q 3481 -459 3084 -895 
Q 2688 -1331 1869 -1331 
Q 1566 -1331 1297 -1286 
Q 1028 -1241 775 -1147 
L 775 -588 
Q 1028 -725 1275 -790 
Q 1522 -856 1778 -856 
Q 2344 -856 2625 -561 
Q 2906 -266 2906 331 
L 2906 616 
Q 2728 306 2450 153 
Q 2172 0 1784 0 
Q 1141 0 747 490 
Q 353 981 353 1791 
Q 353 2603 747 3093 
Q 1141 3584 1784 3584 
Q 2172 3584 2450 3431 
Q 2728 3278 2906 2969 
L 2906 3500 
L 3481 3500 
L 3481 434 
z
" transform="scale(0.015625)"/>
     <path id="DejaVuSans-Oblique-50" d="M 1081 4666 
L 2541 4666 
Q 3178 4666 3512 4369 
Q 3847 4072 3847 3500 
Q 3847 2731 3353 2303 
Q 2859 1875 1966 1875 
L 1172 1875 
L 806 0 
L 172 0 
L 1081 4666 
z
M 1613 4147 
L 1275 2394 
L 2069 2394 
Q 2606 2394 2893 2669 
Q 3181 2944 3181 3456 
Q 3181 3784 2986 3965 
Q 2791 4147 2438 4147 
L 1613 4147 
z
" transform="scale(0.015625)"/>
    </defs>
    <use xlink:href="#DejaVuSans-6c" transform="translate(0 0.015625)"/>
    <use xlink:href="#DejaVuSans-6f" transform="translate(27.783203 0.015625)"/>
    <use xlink:href="#DejaVuSans-67" transform="translate(88.964844 0.015625)"/>
    <use xlink:href="#DejaVuSans-Oblique-50" transform="translate(168.677083 0.015625)"/>
   </g>
  </g>
  <g id="text_8">
   <!-- $\log A$ -->
   <g transform="translate(26.621631 130.770499) rotate(-114.627717) scale(0.08 -0.08)">
    <defs>
     <path id="DejaVuSans-Oblique-41" d="M 2356 4666 
L 3072 4666 
L 3938 0 
L 3278 0 
L 3084 1197 
L 984 1197 
L 325 0 
L -341 0 
L 2356 4666 
z
M 2584 4044 
L 1275 1722 
L 2988 1722 
L 2584 4044 
z
" transform="scale(0.015625)"/>
    </defs>
    <use xlink:href="#DejaVuSans-6c" transform="translate(0 0.015625)"/>
    <use xlink:href="#DejaVuSans-6f" transform="translate(27.783203 0.015625)"/>
    <use xlink:href="#DejaVuSans-67" transform="translate(88.964844 0.015625)"/>
    <use xlink:href="#DejaVuSans-Oblique-41" transform="translate(168.677083 0.015625)"/>
   </g>
  </g>
  <g id="text_9">
   <!-- $\log V$ -->
   <g transform="translate(8.964153 73.111818) rotate(-93.911719) scale(0.08 -0.08)">
    <defs>
     <path id="DejaVuSans-Oblique-56" d="M 1319 0 
L 500 4666 
L 1119 4666 
L 1797 653 
L 4063 4666 
L 4750 4666 
L 2053 0 
L 1319 0 
z
" transform="scale(0.015625)"/>
    </defs>
    <use xlink:href="#DejaVuSans-6c" transform="translate(0 0.015625)"/>
    <use xlink:href="#DejaVuSans-6f" transform="translate(27.783203 0.015625)"/>
    <use xlink:href="#DejaVuSans-67" transform="translate(88.964844 0.015625)"/>
    <use xlink:href="#DejaVuSans-Oblique-56" transform="translate(168.677083 0.015625)"/>
   </g>
  </g>
  <g id="text_10">
   <!-- $\beta_V = 0.82$ -->
   <g transform="translate(40.604743 38.013112) rotate(-12.107524) scale(0.08 -0.08)">
    <defs>
     <path id="DejaVuSans-Oblique-3b2" d="M 872 216 
L 572 -1331 
L -6 -1331 
L 928 3478 
Q 1206 4903 2538 4903 
Q 3888 4903 3659 3700 
Q 3503 2844 2894 2531 
Q 3713 2250 3553 1416 
Q 3272 -69 1759 -66 
Q 1097 -63 872 216 
z
M 1019 966 
Q 1259 422 1875 425 
Q 2775 425 2966 1406 
Q 3138 2288 1675 2219 
L 1778 2750 
Q 2909 2731 3106 3750 
Q 3241 4438 2509 4434 
Q 1691 4434 1503 3459 
L 1019 966 
z
" transform="scale(0.015625)"/>
     <path id="DejaVuSans-3d" d="M 678 2906 
L 4684 2906 
L 4684 2381 
L 678 2381 
L 678 2906 
z
M 678 1631 
L 4684 1631 
L 4684 1100 
L 678 1100 
L 678 1631 
z
" transform="scale(0.015625)"/>
     <path id="DejaVuSans-30" d="M 2034 4250 
Q 1547 4250 1301 3770 
Q 1056 3291 1056 2328 
Q 1056 1369 1301 889 
Q 1547 409 2034 409 
Q 2525 409 2770 889 
Q 3016 1369 3016 2328 
Q 3016 3291 2770 3770 
Q 2525 4250 2034 4250 
z
M 2034 4750 
Q 2819 4750 3233 4129 
Q 3647 3509 3647 2328 
Q 3647 1150 3233 529 
Q 2819 -91 2034 -91 
Q 1250 -91 836 529 
Q 422 1150 422 2328 
Q 422 3509 836 4129 
Q 1250 4750 2034 4750 
z
" transform="scale(0.015625)"/>
     <path id="DejaVuSans-2e" d="M 684 794 
L 1344 794 
L 1344 0 
L 684 0 
L 684 794 
z
" transform="scale(0.015625)"/>
     <path id="DejaVuSans-38" d="M 2034 2216 
Q 1584 2216 1326 1975 
Q 1069 1734 1069 1313 
Q 1069 891 1326 650 
Q 1584 409 2034 409 
Q 2484 409 2743 651 
Q 3003 894 3003 1313 
Q 3003 1734 2745 1975 
Q 2488 2216 2034 2216 
z
M 1403 2484 
Q 997 2584 770 2862 
Q 544 3141 544 3541 
Q 544 4100 942 4425 
Q 1341 4750 2034 4750 
Q 2731 4750 3128 4425 
Q 3525 4100 3525 3541 
Q 3525 3141 3298 2862 
Q 3072 2584 2669 2484 
Q 3125 2378 3379 2068 
Q 3634 1759 3634 1313 
Q 3634 634 3220 271 
Q 2806 -91 2034 -91 
Q 1263 -91 848 271 
Q 434 634 434 1313 
Q 434 1759 690 2068 
Q 947 2378 1403 2484 
z
M 1172 3481 
Q 1172 3119 1398 2916 
Q 1625 2713 2034 2713 
Q 2441 2713 2670 2916 
Q 2900 3119 2900 3481 
Q 2900 3844 2670 4047 
Q 2441 4250 2034 4250 
Q 1625 4250 1398 4047 
Q 1172 3844 1172 3481 
z
" transform="scale(0.015625)"/>
     <path id="DejaVuSans-32" d="M 1228 531 
L 3431 531 
L 3431 0 
L 469 0 
L 469 531 
Q 828 903 1448 1529 
Q 2069 2156 2228 2338 
Q 2531 2678 2651 2914 
Q 2772 3150 2772 3378 
Q 2772 3750 2511 3984 
Q 2250 4219 1831 4219 
Q 1534 4219 1204 4116 
Q 875 4013 500 3803 
L 500 4441 
Q 881 4594 1212 4672 
Q 1544 4750 1819 4750 
Q 2544 4750 2975 4387 
Q 3406 4025 3406 3419 
Q 3406 3131 3298 2873 
Q 3191 2616 2906 2266 
Q 2828 2175 2409 1742 
Q 1991 1309 1228 531 
z
" transform="scale(0.015625)"/>
    </defs>
    <use xlink:href="#DejaVuSans-Oblique-3b2" transform="translate(0 0.390625)"/>
    <use xlink:href="#DejaVuSans-Oblique-56" transform="translate(63.818359 -16.015625) scale(0.7)"/>
    <use xlink:href="#DejaVuSans-3d" transform="translate(133.920898 0.390625)"/>
    <use xlink:href="#DejaVuSans-30" transform="translate(237.192383 0.390625)"/>
    <use xlink:href="#DejaVuSans-2e" transform="translate(300.81543 0.390625)"/>
    <use xlink:href="#DejaVuSans-38" transform="translate(329.977539 0.390625)"/>
    <use xlink:href="#DejaVuSans-32" transform="translate(393.600586 0.390625)"/>
   </g>
  </g>
  <g id="text_11">
   <!-- $\beta_A = 0.87$ -->
   <g transform="translate(116.570669 131.441521) rotate(-14.247758) scale(0.08 -0.08)">
    <defs>
     <path id="DejaVuSans-37" d="M 525 4666 
L 3525 4666 
L 3525 4397 
L 1831 0 
L 1172 0 
L 2766 4134 
L 525 4134 
L 525 4666 
z
" transform="scale(0.015625)"/>
    </defs>
    <use xlink:href="#DejaVuSans-Oblique-3b2" transform="translate(0 0.390625)"/>
    <use xlink:href="#DejaVuSans-Oblique-41" transform="translate(63.818359 -16.015625) scale(0.7)"/>
    <use xlink:href="#DejaVuSans-3d" transform="translate(133.920898 0.390625)"/>
    <use xlink:href="#DejaVuSans-30" transform="translate(237.192383 0.390625)"/>
    <use xlink:href="#DejaVuSans-2e" transform="translate(300.81543 0.390625)"/>
    <use xlink:href="#DejaVuSans-38" transform="translate(329.977539 0.390625)"/>
    <use xlink:href="#DejaVuSans-37" transform="translate(393.600586 0.390625)"/>
   </g>
  </g>
 </g>
 <defs>
  <clipPath id="p511f7b00fd">
   <rect x="20.409449" y="6.80315" width="146.267717" height="146.267717"/>
  </clipPath>
 </defs>
</svg>
