<?xml version="1.0" encoding="utf-8" standalone="no"?>
<!DOCTYPE svg PUBLIC "-//W3C//DTD SVG 1.1//EN"
  "http://www.w3.org/Graphics/SVG/1.1/DTD/svg11.dtd">
<svg xmlns:xlink="http://www.w3.org/1999/xlink" width="170.07874pt" height="170.07874pt" viewBox="0 0 170.07874 170.07874" xmlns="http://www.w3.org/2000/svg" version="1.1">
 <metadata>
  <rdf:RDF xmlns:dc="http://purl.org/dc/elements/1.1/" xmlns:cc="http://creativecommons.org/ns#" xmlns:rdf="http://www.w3.org/1999/02/22-rdf-syntax-ns#">
   <cc:Work>
    <dc:type rdf:resource="http://purl.org/dc/dcmitype/StillImage"/>
    <dc:date>2026-03-16T22:51:35.049948</dc:date>
    <dc:format>image/svg+xml</dc:format>
    <dc:creator>
     <cc:Agent>
      <dc:title>Matplotlib v3.7.2, https://matplotlib.org/</dc:title>
     </cc:Agent>
    </dc:creator>
   </cc:Work>
  </rdf:RDF>
 </metadata>
 <defs>
  <style type="text/css">*{stroke-linejoin: round; stroke-linecap: butt}</style>
 </defs>
 <g id="figure_1">
  <g id="patch_1">
   <path d="M 0 170.07874 
L 170.07874 170.07874 
L 170.07874 0 
L 0 0 
z
" style="fill: #ffffff"/>
  </g>
  <g id="patch_2">
   <path d="M 20.409449 153.070866 
L 166.677165 153.070866 
L 166.677165 6.80315 
L 20.409449 6.80315 
z
" style="fill: #ffffff"/>
  </g>
  <g id="axes_1">
   <g id="line2d_1">
    <path d="M 69.694483 125.769598 
L 128.213419 90.275865 
L 128.213419 90.275865 
" clip-path="url(#pbe189b020a)" style="fill: none; stroke-dasharray: 2.96,1.28; stroke-dashoffset: 0; stroke: #000000; stroke-opacity: 0.5; stroke-width: 0.8"/>
   </g>
   <g id="line2d_2">
    <path d="M 51.687624 67.900561 
L 120.549081 30.150696 
L 120.549081 30.150696 
" clip-path="url(#pbe189b020a)" style="fill: none; stroke-dasharray: 2.96,1.28; stroke-dashoffset: 0; stroke: #000000; stroke-opacity: 0.5; stroke-width: 0.8"/>
   </g>
   <g id="line2d_3">
    <path d="M 69.008324 102.005266 
L 129.826138 44.404021 
L 129.826138 44.404021 
" clip-path="url(#pbe189b020a)" style="fill: none; stroke: #000000; stroke-opacity: 0.9; stroke-linecap: square"/>
   </g>
   <g id="Path3DCollection_1">
    <defs>
     <path id="C0_0_3405a618b7" d="M -1.414214 1.414214 
L 1.414214 1.414214 
L 1.414214 -1.414214 
L -1.414214 -1.414214 
z
"/>
    </defs>
    <g clip-path="url(#pbe189b020a)">
     <use xlink:href="#C0_0_3405a618b7" x="55.153706" y="72.800008" style="fill: #808080; fill-opacity: 0.5"/>
    </g>
    <g clip-path="url(#pbe189b020a)">
     <use xlink:href="#C0_0_3405a618b7" x="115.319788" y="35.135147" style="fill: #808080; fill-opacity: 0.5"/>
    </g>
    <g clip-path="url(#pbe189b020a)">
     <use xlink:href="#C0_0_3405a618b7" x="118.516454" y="32.803135" style="fill: #808080; fill-opacity: 0.5"/>
    </g>
    <g clip-path="url(#pbe189b020a)">
     <use xlink:href="#C0_0_3405a618b7" x="108.547669" y="38.08428" style="fill: #808080; fill-opacity: 0.5"/>
    </g>
    <g clip-path="url(#pbe189b020a)">
     <use xlink:href="#C0_0_3405a618b7" x="60.098789" y="65.498186" style="fill: #808080; fill-opacity: 0.5"/>
    </g>
    <g clip-path="url(#pbe189b020a)">
     <use xlink:href="#C0_0_3405a618b7" x="120.920946" y="30.966392" style="fill: #808080; fill-opacity: 0.5"/>
    </g>
    <g clip-path="url(#pbe189b020a)">
     <use xlink:href="#C0_0_3405a618b7" x="98.345145" y="41.810478" style="fill: #808080; fill-opacity: 0.5"/>
    </g>
    <g clip-path="url(#pbe189b020a)">
     <use xlink:href="#C0_0_3405a618b7" x="65.288704" y="58.439938" style="fill: #808080; fill-opacity: 0.5"/>
    </g>
    <g clip-path="url(#pbe189b020a)">
     <use xlink:href="#C0_0_3405a618b7" x="86.927558" y="45.723621" style="fill: #808080; fill-opacity: 0.5"/>
    </g>
    <g clip-path="url(#pbe189b020a)">
     <use xlink:href="#C0_0_3405a618b7" x="77.961572" y="49.1024" style="fill: #808080; fill-opacity: 0.5"/>
    </g>
    <g clip-path="url(#pbe189b020a)">
     <use xlink:href="#C0_0_3405a618b7" x="70.762946" y="52.049764" style="fill: #808080; fill-opacity: 0.5"/>
    </g>
   </g>
   <g id="text_1">
    <!-- 4 -->
    <g transform="translate(79.502202 156.056148) scale(0.07 -0.07)">
     <defs>
      <path id="ArialMT-34" d="M 2069 0 
L 2069 1097 
L 81 1097 
L 81 1613 
L 2172 4581 
L 2631 4581 
L 2631 1613 
L 3250 1613 
L 3250 1097 
L 2631 1097 
L 2631 0 
L 2069 0 
z
M 2069 1613 
L 2069 3678 
L 634 1613 
L 2069 1613 
z
" transform="scale(0.015625)"/>
     </defs>
     <use xlink:href="#ArialMT-34"/>
    </g>
   </g>
   <g id="text_2">
    <!-- 5 -->
    <g transform="translate(121.388418 145.2308) scale(0.07 -0.07)">
     <defs>
      <path id="ArialMT-35" d="M 266 1200 
L 856 1250 
Q 922 819 1161 601 
Q 1400 384 1738 384 
Q 2144 384 2425 690 
Q 2706 997 2706 1503 
Q 2706 1984 2436 2262 
Q 2166 2541 1728 2541 
Q 1456 2541 1237 2417 
Q 1019 2294 894 2097 
L 366 2166 
L 809 4519 
L 3088 4519 
L 3088 3981 
L 1259 3981 
L 1013 2750 
Q 1425 3038 1878 3038 
Q 2478 3038 2890 2622 
Q 3303 2206 3303 1553 
Q 3303 931 2941 478 
Q 2500 -78 1738 -78 
Q 1113 -78 717 272 
Q 322 622 266 1200 
z
" transform="scale(0.015625)"/>
     </defs>
     <use xlink:href="#ArialMT-35"/>
    </g>
   </g>
   <g id="text_3">
    <!-- 6 -->
    <g transform="translate(162.061165 134.719069) scale(0.07 -0.07)">
     <defs>
      <path id="ArialMT-36" d="M 3184 3459 
L 2625 3416 
Q 2550 3747 2413 3897 
Q 2184 4138 1850 4138 
Q 1581 4138 1378 3988 
Q 1113 3794 959 3422 
Q 806 3050 800 2363 
Q 1003 2672 1297 2822 
Q 1591 2972 1913 2972 
Q 2475 2972 2870 2558 
Q 3266 2144 3266 1488 
Q 3266 1056 3080 686 
Q 2894 316 2569 119 
Q 2244 -78 1831 -78 
Q 1128 -78 684 439 
Q 241 956 241 2144 
Q 241 3472 731 4075 
Q 1159 4600 1884 4600 
Q 2425 4600 2770 4297 
Q 3116 3994 3184 3459 
z
M 888 1484 
Q 888 1194 1011 928 
Q 1134 663 1356 523 
Q 1578 384 1822 384 
Q 2178 384 2434 671 
Q 2691 959 2691 1453 
Q 2691 1928 2437 2201 
Q 2184 2475 1800 2475 
Q 1419 2475 1153 2201 
Q 888 1928 888 1484 
z
" transform="scale(0.015625)"/>
     </defs>
     <use xlink:href="#ArialMT-36"/>
    </g>
   </g>
   <g id="text_4">
    <!-- 6 -->
    <g transform="translate(39.628467 135.637781) scale(0.07 -0.07)">
     <use xlink:href="#ArialMT-36"/>
    </g>
   </g>
   <g id="text_5">
    <!-- 7 -->
    <g transform="translate(19.208144 100.140154) scale(0.07 -0.07)">
     <defs>
      <path id="ArialMT-37" d="M 303 3981 
L 303 4522 
L 3269 4522 
L 3269 4084 
Q 2831 3619 2401 2847 
Q 1972 2075 1738 1259 
Q 1569 684 1522 0 
L 944 0 
Q 953 541 1156 1306 
Q 1359 2072 1739 2783 
Q 2119 3494 2547 3981 
L 303 3981 
z
" transform="scale(0.015625)"/>
     </defs>
     <use xlink:href="#ArialMT-37"/>
    </g>
   </g>
   <g id="text_6">
    <!-- 6 -->
    <g transform="translate(22.919371 95.000434) scale(0.07 -0.07)">
     <use xlink:href="#ArialMT-36"/>
    </g>
   </g>
   <g id="text_7">
    <!-- 7 -->
    <g transform="translate(19.989169 55.465871) scale(0.07 -0.07)">
     <use xlink:href="#ArialMT-37"/>
    </g>
   </g>
   <g id="Path3DCollection_2">
    <defs>
     <path id="C1_0_8f52a6ceb6" d="M -1.414214 1.414214 
L 1.414214 1.414214 
L 1.414214 -1.414214 
L -1.414214 -1.414214 
z
"/>
    </defs>
    <g clip-path="url(#pbe189b020a)">
     <use xlink:href="#C1_0_8f52a6ceb6" x="128.885961" y="90.660015" style="fill: #808080; fill-opacity: 0.5"/>
    </g>
    <g clip-path="url(#pbe189b020a)">
     <use xlink:href="#C1_0_8f52a6ceb6" x="127.359772" y="92.524817" style="fill: #808080; fill-opacity: 0.5"/>
    </g>
    <g clip-path="url(#pbe189b020a)">
     <use xlink:href="#C1_0_8f52a6ceb6" x="125.080156" y="94.632249" style="fill: #808080; fill-opacity: 0.5"/>
    </g>
    <g clip-path="url(#pbe189b020a)">
     <use xlink:href="#C1_0_8f52a6ceb6" x="119.145815" y="97.403916" style="fill: #808080; fill-opacity: 0.5"/>
    </g>
    <g clip-path="url(#pbe189b020a)">
     <use xlink:href="#C1_0_8f52a6ceb6" x="109.80293" y="101.033688" style="fill: #808080; fill-opacity: 0.5"/>
    </g>
    <g clip-path="url(#pbe189b020a)">
     <use xlink:href="#C1_0_8f52a6ceb6" x="99.135816" y="104.863484" style="fill: #808080; fill-opacity: 0.5"/>
    </g>
    <g clip-path="url(#pbe189b020a)">
     <use xlink:href="#C1_0_8f52a6ceb6" x="90.793754" y="108.045985" style="fill: #808080; fill-opacity: 0.5"/>
    </g>
    <g clip-path="url(#pbe189b020a)">
     <use xlink:href="#C1_0_8f52a6ceb6" x="84.119511" y="110.738418" style="fill: #808080; fill-opacity: 0.5"/>
    </g>
    <g clip-path="url(#pbe189b020a)">
     <use xlink:href="#C1_0_8f52a6ceb6" x="80.845803" y="116.629908" style="fill: #808080; fill-opacity: 0.5"/>
    </g>
    <g clip-path="url(#pbe189b020a)">
     <use xlink:href="#C1_0_8f52a6ceb6" x="78.070413" y="123.221863" style="fill: #808080; fill-opacity: 0.5"/>
    </g>
    <g clip-path="url(#pbe189b020a)">
     <use xlink:href="#C1_0_8f52a6ceb6" x="75.600282" y="130.223692" style="fill: #808080; fill-opacity: 0.5"/>
    </g>
   </g>
   <g id="Line3DCollection_1">
    <path d="M 32.334969 96.159277 
L 52.208323 91.486374 
L 71.811046 86.877106 
L 91.148628 82.330181 
L 110.226413 77.844343 
L 129.049602 73.41837 
" clip-path="url(#pbe189b020a)" style="fill: none; stroke: #000000; stroke-opacity: 0.22; stroke-width: 0.2"/>
    <path d="M 30.875268 74.811944 
L 51.214753 70.18155 
L 71.270951 65.615648 
L 91.049738 61.1129 
L 110.55683 56.672004 
L 129.797788 52.291696 
" clip-path="url(#pbe189b020a)" style="fill: none; stroke: #000000; stroke-opacity: 0.22; stroke-width: 0.2"/>
    <path d="M 29.346527 52.454951 
L 50.174529 47.876308 
L 70.705676 43.362924 
L 90.94627 38.913412 
L 110.902435 34.526426 
L 130.580125 30.200658 
" clip-path="url(#pbe189b020a)" style="fill: none; stroke: #000000; stroke-opacity: 0.22; stroke-width: 0.2"/>
    <path d="M 27.74373 29.014933 
L 49.084283 24.498491 
L 70.113417 20.047956 
L 90.837899 15.661898 
L 111.264301 11.338924 
L 131.399008 7.077683 
" clip-path="url(#pbe189b020a)" style="fill: none; stroke: #000000; stroke-opacity: 0.22; stroke-width: 0.2"/>
    <path d="M 32.334969 96.159277 
L 30.875268 74.811944 
L 29.346527 52.454951 
L 27.74373 29.014933 
" clip-path="url(#pbe189b020a)" style="fill: none; stroke: #000000; stroke-opacity: 0.22; stroke-width: 0.2"/>
    <path d="M 52.208323 91.486374 
L 51.214753 70.18155 
L 50.174529 47.876308 
L 49.084283 24.498491 
" clip-path="url(#pbe189b020a)" style="fill: none; stroke: #000000; stroke-opacity: 0.22; stroke-width: 0.2"/>
    <path d="M 71.811046 86.877106 
L 71.270951 65.615648 
L 70.705676 43.362924 
L 70.113417 20.047956 
" clip-path="url(#pbe189b020a)" style="fill: none; stroke: #000000; stroke-opacity: 0.22; stroke-width: 0.2"/>
    <path d="M 91.148628 82.330181 
L 91.049738 61.1129 
L 90.94627 38.913412 
L 90.837899 15.661898 
" clip-path="url(#pbe189b020a)" style="fill: none; stroke: #000000; stroke-opacity: 0.22; stroke-width: 0.2"/>
    <path d="M 110.226413 77.844343 
L 110.55683 56.672004 
L 110.902435 34.526426 
L 111.264301 11.338924 
" clip-path="url(#pbe189b020a)" style="fill: none; stroke: #000000; stroke-opacity: 0.22; stroke-width: 0.2"/>
    <path d="M 129.049602 73.41837 
L 129.797788 52.291696 
L 130.580125 30.200658 
L 131.399008 7.077683 
" clip-path="url(#pbe189b020a)" style="fill: none; stroke: #000000; stroke-opacity: 0.22; stroke-width: 0.2"/>
   </g>
   <g id="Poly3DCollection_1">
    <path d="M 128.917317 46.229495 
L 130.92321 45.777326 
L 131.006302 43.490337 
L 128.995757 43.941926 
z
" clip-path="url(#pbe189b020a)" style="fill: #1f77b4; fill-opacity: 0.5"/>
    <path d="M 129.993533 47.891477 
L 132.003928 47.436926 
L 130.92321 45.777326 
L 128.917317 46.229495 
z
" clip-path="url(#pbe189b020a)" style="fill: #1f77b4; fill-opacity: 0.5"/>
    <path d="M 132.003928 47.436926 
L 130.92321 45.777326 
L 131.006302 43.490337 
L 132.089782 45.147816 
z
" clip-path="url(#pbe189b020a)" style="fill: #1f77b4; fill-opacity: 0.5"/>
    <path d="M 127.277247 49.377133 
L 129.28736 48.92202 
L 129.366734 46.638943 
L 127.351948 47.093484 
z
" clip-path="url(#pbe189b020a)" style="fill: #1f77b4; fill-opacity: 0.5"/>
    <path d="M 128.350781 51.04994 
L 130.365416 50.592427 
L 129.28736 48.92202 
L 127.277247 49.377133 
z
" clip-path="url(#pbe189b020a)" style="fill: #1f77b4; fill-opacity: 0.5"/>
    <path d="M 129.993533 47.891477 
L 128.917317 46.229495 
L 128.995757 43.941926 
L 130.074715 45.601789 
z
" clip-path="url(#pbe189b020a)" style="fill: #1f77b4; fill-opacity: 0.5"/>
    <path d="M 130.365416 50.592427 
L 129.28736 48.92202 
L 129.366734 46.638943 
L 130.447539 48.307261 
z
" clip-path="url(#pbe189b020a)" style="fill: #1f77b4; fill-opacity: 0.5"/>
    <path d="M 130.074715 45.601789 
L 132.089782 45.147816 
L 131.006302 43.490337 
L 128.995757 43.941926 
z
" clip-path="url(#pbe189b020a)" style="fill: #1f77b4; fill-opacity: 0.5"/>
    <path d="M 129.993533 47.891477 
L 132.003928 47.436926 
L 132.089782 45.147816 
L 130.074715 45.601789 
z
" clip-path="url(#pbe189b020a)" style="fill: #1f77b4; fill-opacity: 0.5"/>
    <path d="M 124.844788 53.087664 
L 126.859744 52.629186 
L 126.933525 50.351312 
L 124.913875 50.80923 
z
" clip-path="url(#pbe189b020a)" style="fill: #1f77b4; fill-opacity: 0.5"/>
    <path d="M 128.350781 51.04994 
L 127.277247 49.377133 
L 127.351948 47.093484 
L 128.428212 48.764206 
z
" clip-path="url(#pbe189b020a)" style="fill: #1f77b4; fill-opacity: 0.5"/>
    <path d="M 125.913562 54.772849 
L 127.933062 54.311949 
L 126.859744 52.629186 
L 124.844788 53.087664 
z
" clip-path="url(#pbe189b020a)" style="fill: #1f77b4; fill-opacity: 0.5"/>
    <path d="M 128.428212 48.764206 
L 130.447539 48.307261 
L 129.366734 46.638943 
L 127.351948 47.093484 
z
" clip-path="url(#pbe189b020a)" style="fill: #1f77b4; fill-opacity: 0.5"/>
    <path d="M 127.933062 54.311949 
L 126.859744 52.629186 
L 126.933525 50.351312 
L 128.009571 52.032026 
z
" clip-path="url(#pbe189b020a)" style="fill: #1f77b4; fill-opacity: 0.5"/>
    <path d="M 128.350781 51.04994 
L 130.365416 50.592427 
L 130.447539 48.307261 
L 128.428212 48.764206 
z
" clip-path="url(#pbe189b020a)" style="fill: #1f77b4; fill-opacity: 0.5"/>
    <path d="M 125.913562 54.772849 
L 124.844788 53.087664 
L 124.913875 50.80923 
L 125.985356 52.492368 
z
" clip-path="url(#pbe189b020a)" style="fill: #1f77b4; fill-opacity: 0.5"/>
    <path d="M 125.985356 52.492368 
L 128.009571 52.032026 
L 126.933525 50.351312 
L 124.913875 50.80923 
z
" clip-path="url(#pbe189b020a)" style="fill: #1f77b4; fill-opacity: 0.5"/>
    <path d="M 125.913562 54.772849 
L 127.933062 54.311949 
L 128.009571 52.032026 
L 125.985356 52.492368 
z
" clip-path="url(#pbe189b020a)" style="fill: #1f77b4; fill-opacity: 0.5"/>
    <path d="M 118.616531 57.27512 
L 120.641446 56.812381 
L 120.700749 54.538178 
L 118.671093 55.000367 
z
" clip-path="url(#pbe189b020a)" style="fill: #1f77b4; fill-opacity: 0.5"/>
    <path d="M 119.671737 58.97598 
L 121.701245 58.510791 
L 120.641446 56.812381 
L 118.616531 57.27512 
z
" clip-path="url(#pbe189b020a)" style="fill: #1f77b4; fill-opacity: 0.5"/>
    <path d="M 121.701245 58.510791 
L 120.641446 56.812381 
L 120.700749 54.538178 
L 121.763213 56.234579 
z
" clip-path="url(#pbe189b020a)" style="fill: #1f77b4; fill-opacity: 0.5"/>
    <path d="M 119.671737 58.97598 
L 118.616531 57.27512 
L 118.671093 55.000367 
L 119.728943 56.699222 
z
" clip-path="url(#pbe189b020a)" style="fill: #1f77b4; fill-opacity: 0.5"/>
    <path d="M 119.728943 56.699222 
L 121.763213 56.234579 
L 120.700749 54.538178 
L 118.671093 55.000367 
z
" clip-path="url(#pbe189b020a)" style="fill: #1f77b4; fill-opacity: 0.5"/>
    <path d="M 119.671737 58.97598 
L 121.701245 58.510791 
L 121.763213 56.234579 
L 119.728943 56.699222 
z
" clip-path="url(#pbe189b020a)" style="fill: #1f77b4; fill-opacity: 0.5"/>
    <path d="M 108.857182 62.320536 
L 110.89721 61.85231 
L 110.933655 59.58098 
L 108.888815 60.04867 
z
" clip-path="url(#pbe189b020a)" style="fill: #1f77b4; fill-opacity: 0.5"/>
    <path d="M 109.890672 64.041593 
L 111.935367 63.570876 
L 110.89721 61.85231 
L 108.857182 62.320536 
z
" clip-path="url(#pbe189b020a)" style="fill: #1f77b4; fill-opacity: 0.5"/>
    <path d="M 111.935367 63.570876 
L 110.89721 61.85231 
L 110.933655 59.58098 
L 111.974376 61.297586 
z
" clip-path="url(#pbe189b020a)" style="fill: #1f77b4; fill-opacity: 0.5"/>
    <path d="M 109.890672 64.041593 
L 108.857182 62.320536 
L 108.888815 60.04867 
L 109.924847 61.767769 
z
" clip-path="url(#pbe189b020a)" style="fill: #1f77b4; fill-opacity: 0.5"/>
    <path d="M 109.924847 61.767769 
L 111.974376 61.297586 
L 110.933655 59.58098 
L 108.888815 60.04867 
z
" clip-path="url(#pbe189b020a)" style="fill: #1f77b4; fill-opacity: 0.5"/>
    <path d="M 109.890672 64.041593 
L 111.935367 63.570876 
L 111.974376 61.297586 
L 109.924847 61.767769 
z
" clip-path="url(#pbe189b020a)" style="fill: #1f77b4; fill-opacity: 0.5"/>
    <path d="M 97.747491 67.475301 
L 99.804423 67.001303 
L 99.814622 64.732365 
L 97.752797 65.205839 
z
" clip-path="url(#pbe189b020a)" style="fill: #1f77b4; fill-opacity: 0.5"/>
    <path d="M 98.755829 69.217595 
L 100.817512 68.741066 
L 99.804423 67.001303 
L 97.747491 67.475301 
z
" clip-path="url(#pbe189b020a)" style="fill: #1f77b4; fill-opacity: 0.5"/>
    <path d="M 100.817512 68.741066 
L 99.804423 67.001303 
L 99.814622 64.732365 
L 100.830156 66.470215 
z
" clip-path="url(#pbe189b020a)" style="fill: #1f77b4; fill-opacity: 0.5"/>
    <path d="M 98.755829 69.217595 
L 97.747491 67.475301 
L 97.752797 65.205839 
L 98.763558 66.946224 
z
" clip-path="url(#pbe189b020a)" style="fill: #1f77b4; fill-opacity: 0.5"/>
    <path d="M 98.763558 66.946224 
L 100.830156 66.470215 
L 99.814622 64.732365 
L 97.752797 65.205839 
z
" clip-path="url(#pbe189b020a)" style="fill: #1f77b4; fill-opacity: 0.5"/>
    <path d="M 98.755829 69.217595 
L 100.817512 68.741066 
L 100.830156 66.470215 
L 98.763558 66.946224 
z
" clip-path="url(#pbe189b020a)" style="fill: #1f77b4; fill-opacity: 0.5"/>
    <path d="M 89.080106 71.999503 
L 91.150164 71.52064 
L 91.139728 69.254961 
L 89.064715 69.733313 
z
" clip-path="url(#pbe189b020a)" style="fill: #1f77b4; fill-opacity: 0.5"/>
    <path d="M 90.06859 73.7597 
L 92.143465 73.278271 
L 91.150164 71.52064 
L 89.080106 71.999503 
z
" clip-path="url(#pbe189b020a)" style="fill: #1f77b4; fill-opacity: 0.5"/>
    <path d="M 92.143465 73.278271 
L 91.150164 71.52064 
L 91.139728 69.254961 
L 92.135379 71.010725 
z
" clip-path="url(#pbe189b020a)" style="fill: #1f77b4; fill-opacity: 0.5"/>
    <path d="M 90.06859 73.7597 
L 89.080106 71.999503 
L 89.064715 69.733313 
L 90.055527 71.491647 
z
" clip-path="url(#pbe189b020a)" style="fill: #1f77b4; fill-opacity: 0.5"/>
    <path d="M 90.055527 71.491647 
L 92.135379 71.010725 
L 91.139728 69.254961 
L 89.064715 69.733313 
z
" clip-path="url(#pbe189b020a)" style="fill: #1f77b4; fill-opacity: 0.5"/>
    <path d="M 82.164699 75.999717 
L 84.245175 75.516691 
L 84.218179 73.254691 
L 82.132697 73.737217 
z
" clip-path="url(#pbe189b020a)" style="fill: #1f77b4; fill-opacity: 0.5"/>
    <path d="M 90.06859 73.7597 
L 92.143465 73.278271 
L 92.135379 71.010725 
L 90.055527 71.491647 
z
" clip-path="url(#pbe189b020a)" style="fill: #1f77b4; fill-opacity: 0.5"/>
    <path d="M 83.137193 77.775233 
L 85.222538 77.289611 
L 84.245175 75.516691 
L 82.164699 75.999717 
z
" clip-path="url(#pbe189b020a)" style="fill: #1f77b4; fill-opacity: 0.5"/>
    <path d="M 85.222538 77.289611 
L 84.245175 75.516691 
L 84.218179 73.254691 
L 85.197816 75.025786 
z
" clip-path="url(#pbe189b020a)" style="fill: #1f77b4; fill-opacity: 0.5"/>
    <path d="M 83.137193 77.775233 
L 82.164699 75.999717 
L 82.132697 73.737217 
L 83.107442 75.510911 
z
" clip-path="url(#pbe189b020a)" style="fill: #1f77b4; fill-opacity: 0.5"/>
    <path d="M 83.107442 75.510911 
L 85.197816 75.025786 
L 84.218179 73.254691 
L 82.132697 73.737217 
z
" clip-path="url(#pbe189b020a)" style="fill: #1f77b4; fill-opacity: 0.5"/>
    <path d="M 83.137193 77.775233 
L 85.222538 77.289611 
L 85.197816 75.025786 
L 83.107442 75.510911 
z
" clip-path="url(#pbe189b020a)" style="fill: #1f77b4; fill-opacity: 0.5"/>
    <path d="M 78.846081 86.992101 
L 80.935633 86.49948 
L 80.9006 84.25662 
L 78.806 84.748777 
z
" clip-path="url(#pbe189b020a)" style="fill: #1f77b4; fill-opacity: 0.5"/>
    <path d="M 79.812756 88.802906 
L 81.90722 88.30763 
L 80.935633 86.49948 
L 78.846081 86.992101 
z
" clip-path="url(#pbe189b020a)" style="fill: #1f77b4; fill-opacity: 0.5"/>
    <path d="M 81.90722 88.30763 
L 80.935633 86.49948 
L 80.9006 84.25662 
L 81.874433 86.063076 
z
" clip-path="url(#pbe189b020a)" style="fill: #1f77b4; fill-opacity: 0.5"/>
    <path d="M 79.812756 88.802906 
L 78.846081 86.992101 
L 78.806 84.748777 
L 79.774896 86.557892 
z
" clip-path="url(#pbe189b020a)" style="fill: #1f77b4; fill-opacity: 0.5"/>
    <path d="M 79.774896 86.557892 
L 81.874433 86.063076 
L 80.9006 84.25662 
L 78.806 84.748777 
z
" clip-path="url(#pbe189b020a)" style="fill: #1f77b4; fill-opacity: 0.5"/>
    <path d="M 79.812756 88.802906 
L 81.90722 88.30763 
L 81.874433 86.063076 
L 79.774896 86.557892 
z
" clip-path="url(#pbe189b020a)" style="fill: #1f77b4; fill-opacity: 0.5"/>
    <path d="M 76.089085 99.418425 
L 78.187427 98.915077 
L 78.145657 96.694861 
L 76.042224 97.197786 
z
" clip-path="url(#pbe189b020a)" style="fill: #1f77b4; fill-opacity: 0.5"/>
    <path d="M 77.051451 101.268683 
L 79.154748 100.762613 
L 78.187427 98.915077 
L 76.089085 99.418425 
z
" clip-path="url(#pbe189b020a)" style="fill: #1f77b4; fill-opacity: 0.5"/>
    <path d="M 79.154748 100.762613 
L 78.187427 98.915077 
L 78.145657 96.694861 
L 79.115203 98.540853 
z
" clip-path="url(#pbe189b020a)" style="fill: #1f77b4; fill-opacity: 0.5"/>
    <path d="M 77.051451 101.268683 
L 76.089085 99.418425 
L 76.042224 97.197786 
L 77.00679 99.046504 
z
" clip-path="url(#pbe189b020a)" style="fill: #1f77b4; fill-opacity: 0.5"/>
    <path d="M 77.00679 99.046504 
L 79.115203 98.540853 
L 78.145657 96.694861 
L 76.042224 97.197786 
z
" clip-path="url(#pbe189b020a)" style="fill: #1f77b4; fill-opacity: 0.5"/>
    <path d="M 77.051451 101.268683 
L 79.154748 100.762613 
L 79.115203 98.540853 
L 77.00679 99.046504 
z
" clip-path="url(#pbe189b020a)" style="fill: #1f77b4; fill-opacity: 0.5"/>
    <path d="M 73.686283 112.558336 
L 75.793253 112.043654 
L 75.745558 109.847908 
L 73.633455 110.36221 
z
" clip-path="url(#pbe189b020a)" style="fill: #1f77b4; fill-opacity: 0.5"/>
    <path d="M 74.645292 114.450275 
L 76.757259 113.932801 
L 75.793253 112.043654 
L 73.686283 112.558336 
z
" clip-path="url(#pbe189b020a)" style="fill: #1f77b4; fill-opacity: 0.5"/>
    <path d="M 76.757259 113.932801 
L 75.793253 112.043654 
L 75.745558 109.847908 
L 76.711772 111.735673 
z
" clip-path="url(#pbe189b020a)" style="fill: #1f77b4; fill-opacity: 0.5"/>
    <path d="M 74.645292 114.450275 
L 73.686283 112.558336 
L 73.633455 110.36221 
L 74.594647 112.252773 
z
" clip-path="url(#pbe189b020a)" style="fill: #1f77b4; fill-opacity: 0.5"/>
    <path d="M 74.594647 112.252773 
L 76.711772 111.735673 
L 75.745558 109.847908 
L 73.633455 110.36221 
z
" clip-path="url(#pbe189b020a)" style="fill: #1f77b4; fill-opacity: 0.5"/>
    <path d="M 74.645292 114.450275 
L 76.757259 113.932801 
L 76.711772 111.735673 
L 74.594647 112.252773 
z
" clip-path="url(#pbe189b020a)" style="fill: #1f77b4; fill-opacity: 0.5"/>
   </g>
   <g id="Line3DCollection_2">
    <path d="M 57.985493 152.11335 
L 79.287971 146.644842 
L 100.276893 141.256825 
L 120.959132 135.947536 
L 141.341361 130.715263 
L 161.43006 125.55834 
" clip-path="url(#pbe189b020a)" style="fill: none; stroke: #000000; stroke-opacity: 0.22; stroke-width: 0.2"/>
    <path d="M 48.979861 132.468456 
L 69.784058 127.286346 
L 90.290074 122.17851 
L 110.504273 117.143363 
L 130.432839 112.179363 
L 150.081786 107.285014 
" clip-path="url(#pbe189b020a)" style="fill: none; stroke: #000000; stroke-opacity: 0.22; stroke-width: 0.2"/>
    <path d="M 40.441502 113.842874 
L 60.769806 108.925239 
L 80.814203 104.076284 
L 100.580598 99.29458 
L 120.074735 94.578738 
L 139.302201 89.927407 
" clip-path="url(#pbe189b020a)" style="fill: none; stroke: #000000; stroke-opacity: 0.22; stroke-width: 0.2"/>
    <path d="M 32.334969 96.159277 
L 52.208323 91.486374 
L 71.811046 86.877106 
L 91.148628 82.330181 
L 110.226413 77.844343 
L 129.049602 73.41837 
" clip-path="url(#pbe189b020a)" style="fill: none; stroke: #000000; stroke-opacity: 0.22; stroke-width: 0.2"/>
    <path d="M 57.985493 152.11335 
L 48.979861 132.468456 
L 40.441502 113.842874 
L 32.334969 96.159277 
" clip-path="url(#pbe189b020a)" style="fill: none; stroke: #000000; stroke-opacity: 0.22; stroke-width: 0.2"/>
    <path d="M 79.287971 146.644842 
L 69.784058 127.286346 
L 60.769806 108.925239 
L 52.208323 91.486374 
" clip-path="url(#pbe189b020a)" style="fill: none; stroke: #000000; stroke-opacity: 0.22; stroke-width: 0.2"/>
    <path d="M 100.276893 141.256825 
L 90.290074 122.17851 
L 80.814203 104.076284 
L 71.811046 86.877106 
" clip-path="url(#pbe189b020a)" style="fill: none; stroke: #000000; stroke-opacity: 0.22; stroke-width: 0.2"/>
    <path d="M 120.959132 135.947536 
L 110.504273 117.143363 
L 100.580598 99.29458 
L 91.148628 82.330181 
" clip-path="url(#pbe189b020a)" style="fill: none; stroke: #000000; stroke-opacity: 0.22; stroke-width: 0.2"/>
    <path d="M 141.341361 130.715263 
L 130.432839 112.179363 
L 120.074735 94.578738 
L 110.226413 77.844343 
" clip-path="url(#pbe189b020a)" style="fill: none; stroke: #000000; stroke-opacity: 0.22; stroke-width: 0.2"/>
    <path d="M 161.43006 125.55834 
L 150.081786 107.285014 
L 139.302201 89.927407 
L 129.049602 73.41837 
" clip-path="url(#pbe189b020a)" style="fill: none; stroke: #000000; stroke-opacity: 0.22; stroke-width: 0.2"/>
   </g>
   <g id="line2d_4">
    <path d="M 57.985493 152.11335 
L 161.43006 125.55834 
" clip-path="url(#pbe189b020a)" style="fill: none; stroke: #000000; stroke-width: 0.2; stroke-linecap: square"/>
   </g>
   <g id="line2d_5">
    <path d="M 57.985493 152.11335 
L 32.334969 96.159277 
" clip-path="url(#pbe189b020a)" style="fill: none; stroke: #000000; stroke-width: 0.2; stroke-linecap: square"/>
   </g>
   <g id="line2d_6">
    <path d="M 32.334969 96.159277 
L 27.74373 29.014933 
" clip-path="url(#pbe189b020a)" style="fill: none; stroke: #000000; stroke-width: 0.2; stroke-linecap: square"/>
   </g>
   <g id="line2d_7">
    <path d="M 79.287971 146.644842 
L 80.266833 148.638685 
" clip-path="url(#pbe189b020a)" style="fill: none"/>
   </g>
   <g id="line2d_8">
    <path d="M 120.959132 135.947536 
L 122.035479 137.883462 
" clip-path="url(#pbe189b020a)" style="fill: none"/>
   </g>
   <g id="line2d_9">
    <path d="M 161.43006 125.55834 
L 162.597902 127.438835 
" clip-path="url(#pbe189b020a)" style="fill: none"/>
   </g>
   <g id="line2d_10">
    <path d="M 48.979861 132.468456 
L 46.88279 132.990815 
" clip-path="url(#pbe189b020a)" style="fill: none"/>
   </g>
   <g id="line2d_11">
    <path d="M 32.334969 96.159277 
L 30.332533 96.630118 
" clip-path="url(#pbe189b020a)" style="fill: none"/>
   </g>
   <g id="line2d_12">
    <path d="M 32.334969 96.159277 
L 30.332533 96.630118 
" clip-path="url(#pbe189b020a)" style="fill: none"/>
   </g>
   <g id="line2d_13">
    <path d="M 29.346527 52.454951 
L 27.247152 52.916459 
" clip-path="url(#pbe189b020a)" style="fill: none"/>
   </g>
  </g>
  <g id="text_8">
   <!-- $\log P$ -->
   <g transform="translate(102.33062 159.80095) rotate(-14.397381) scale(0.08 -0.08)">
    <defs>
     <path id="DejaVuSans-6c" d="M 603 4863 
L 1178 4863 
L 1178 0 
L 603 0 
L 603 4863 
z
" transform="scale(0.015625)"/>
     <path id="DejaVuSans-6f" d="M 1959 3097 
Q 1497 3097 1228 2736 
Q 959 2375 959 1747 
Q 959 1119 1226 758 
Q 1494 397 1959 397 
Q 2419 397 2687 759 
Q 2956 1122 2956 1747 
Q 2956 2369 2687 2733 
Q 2419 3097 1959 3097 
z
M 1959 3584 
Q 2709 3584 3137 3096 
Q 3566 2609 3566 1747 
Q 3566 888 3137 398 
Q 2709 -91 1959 -91 
Q 1206 -91 779 398 
Q 353 888 353 1747 
Q 353 2609 779 3096 
Q 1206 3584 1959 3584 
z
" transform="scale(0.015625)"/>
     <path id="DejaVuSans-67" d="M 2906 1791 
Q 2906 2416 2648 2759 
Q 2391 3103 1925 3103 
Q 1463 3103 1205 2759 
Q 947 2416 947 1791 
Q 947 1169 1205 825 
Q 1463 481 1925 481 
Q 2391 481 2648 825 
Q 2906 1169 2906 1791 
z
M 3481 434 
Q 3481 -459 3084 -895 
Q 2688 -1331 1869 -1331 
Q 1566 -1331 1297 -1286 
Q 1028 -1241 775 -1147 
L 775 -588 
Q 1028 -725 1275 -790 
Q 1522 -856 1778 -856 
Q 2344 -856 2625 -561 
Q 2906 -266 2906 331 
L 2906 616 
Q 2728 306 2450 153 
Q 2172 0 1784 0 
Q 1141 0 747 490 
Q 353 981 353 1791 
Q 353 2603 747 3093 
Q 1141 3584 1784 3584 
Q 2172 3584 2450 3431 
Q 2728 3278 2906 2969 
L 2906 3500 
L 3481 3500 
L 3481 434 
z
" transform="scale(0.015625)"/>
     <path id="DejaVuSans-Oblique-50" d="M 1081 4666 
L 2541 4666 
Q 3178 4666 3512 4369 
Q 3847 4072 3847 3500 
Q 3847 2731 3353 2303 
Q 2859 1875 1966 1875 
L 1172 1875 
L 806 0 
L 172 0 
L 1081 4666 
z
M 1613 4147 
L 1275 2394 
L 2069 2394 
Q 2606 2394 2893 2669 
Q 3181 2944 3181 3456 
Q 3181 3784 2986 3965 
Q 2791 4147 2438 4147 
L 1613 4147 
z
" transform="scale(0.015625)"/>
    </defs>
    <use xlink:href="#DejaVuSans-6c" transform="translate(0 0.015625)"/>
    <use xlink:href="#DejaVuSans-6f" transform="translate(27.783203 0.015625)"/>
    <use xlink:href="#DejaVuSans-67" transform="translate(88.964844 0.015625)"/>
    <use xlink:href="#DejaVuSans-Oblique-50" transform="translate(168.677083 0.015625)"/>
   </g>
  </g>
  <g id="text_9">
   <!-- $\log A$ -->
   <g transform="translate(26.621631 130.770499) rotate(-114.627717) scale(0.08 -0.08)">
    <defs>
     <path id="DejaVuSans-Oblique-41" d="M 2356 4666 
L 3072 4666 
L 3938 0 
L 3278 0 
L 3084 1197 
L 984 1197 
L 325 0 
L -341 0 
L 2356 4666 
z
M 2584 4044 
L 1275 1722 
L 2988 1722 
L 2584 4044 
z
" transform="scale(0.015625)"/>
    </defs>
    <use xlink:href="#DejaVuSans-6c" transform="translate(0 0.015625)"/>
    <use xlink:href="#DejaVuSans-6f" transform="translate(27.783203 0.015625)"/>
    <use xlink:href="#DejaVuSans-67" transform="translate(88.964844 0.015625)"/>
    <use xlink:href="#DejaVuSans-Oblique-41" transform="translate(168.677083 0.015625)"/>
   </g>
  </g>
  <g id="text_10">
   <!-- $\log V$ -->
   <g transform="translate(8.964153 73.111818) rotate(-93.911719) scale(0.08 -0.08)">
    <defs>
     <path id="DejaVuSans-Oblique-56" d="M 1319 0 
L 500 4666 
L 1119 4666 
L 1797 653 
L 4063 4666 
L 4750 4666 
L 2053 0 
L 1319 0 
z
" transform="scale(0.015625)"/>
    </defs>
    <use xlink:href="#DejaVuSans-6c" transform="translate(0 0.015625)"/>
    <use xlink:href="#DejaVuSans-6f" transform="translate(27.783203 0.015625)"/>
    <use xlink:href="#DejaVuSans-67" transform="translate(88.964844 0.015625)"/>
    <use xlink:href="#DejaVuSans-Oblique-56" transform="translate(168.677083 0.015625)"/>
   </g>
  </g>
  <g id="text_11">
   <!-- $\beta_V = 0.29$ -->
   <g transform="translate(40.604743 38.013112) rotate(-12.107524) scale(0.08 -0.08)">
    <defs>
     <path id="DejaVuSans-Oblique-3b2" d="M 872 216 
L 572 -1331 
L -6 -1331 
L 928 3478 
Q 1206 4903 2538 4903 
Q 3888 4903 3659 3700 
Q 3503 2844 2894 2531 
Q 3713 2250 3553 1416 
Q 3272 -69 1759 -66 
Q 1097 -63 872 216 
z
M 1019 966 
Q 1259 422 1875 425 
Q 2775 425 2966 1406 
Q 3138 2288 1675 2219 
L 1778 2750 
Q 2909 2731 3106 3750 
Q 3241 4438 2509 4434 
Q 1691 4434 1503 3459 
L 1019 966 
z
" transform="scale(0.015625)"/>
     <path id="DejaVuSans-3d" d="M 678 2906 
L 4684 2906 
L 4684 2381 
L 678 2381 
L 678 2906 
z
M 678 1631 
L 4684 1631 
L 4684 1100 
L 678 1100 
L 678 1631 
z
" transform="scale(0.015625)"/>
     <path id="DejaVuSans-30" d="M 2034 4250 
Q 1547 4250 1301 3770 
Q 1056 3291 1056 2328 
Q 1056 1369 1301 889 
Q 1547 409 2034 409 
Q 2525 409 2770 889 
Q 3016 1369 3016 2328 
Q 3016 3291 2770 3770 
Q 2525 4250 2034 4250 
z
M 2034 4750 
Q 2819 4750 3233 4129 
Q 3647 3509 3647 2328 
Q 3647 1150 3233 529 
Q 2819 -91 2034 -91 
Q 1250 -91 836 529 
Q 422 1150 422 2328 
Q 422 3509 836 4129 
Q 1250 4750 2034 4750 
z
" transform="scale(0.015625)"/>
     <path id="DejaVuSans-2e" d="M 684 794 
L 1344 794 
L 1344 0 
L 684 0 
L 684 794 
z
" transform="scale(0.015625)"/>
     <path id="DejaVuSans-32" d="M 1228 531 
L 3431 531 
L 3431 0 
L 469 0 
L 469 531 
Q 828 903 1448 1529 
Q 2069 2156 2228 2338 
Q 2531 2678 2651 2914 
Q 2772 3150 2772 3378 
Q 2772 3750 2511 3984 
Q 2250 4219 1831 4219 
Q 1534 4219 1204 4116 
Q 875 4013 500 3803 
L 500 4441 
Q 881 4594 1212 4672 
Q 1544 4750 1819 4750 
Q 2544 4750 2975 4387 
Q 3406 4025 3406 3419 
Q 3406 3131 3298 2873 
Q 3191 2616 2906 2266 
Q 2828 2175 2409 1742 
Q 1991 1309 1228 531 
z
" transform="scale(0.015625)"/>
     <path id="DejaVuSans-39" d="M 703 97 
L 703 672 
Q 941 559 1184 500 
Q 1428 441 1663 441 
Q 2288 441 2617 861 
Q 2947 1281 2994 2138 
Q 2813 1869 2534 1725 
Q 2256 1581 1919 1581 
Q 1219 1581 811 2004 
Q 403 2428 403 3163 
Q 403 3881 828 4315 
Q 1253 4750 1959 4750 
Q 2769 4750 3195 4129 
Q 3622 3509 3622 2328 
Q 3622 1225 3098 567 
Q 2575 -91 1691 -91 
Q 1453 -91 1209 -44 
Q 966 3 703 97 
z
M 1959 2075 
Q 2384 2075 2632 2365 
Q 2881 2656 2881 3163 
Q 2881 3666 2632 3958 
Q 2384 4250 1959 4250 
Q 1534 4250 1286 3958 
Q 1038 3666 1038 3163 
Q 1038 2656 1286 2365 
Q 1534 2075 1959 2075 
z
" transform="scale(0.015625)"/>
    </defs>
    <use xlink:href="#DejaVuSans-Oblique-3b2" transform="translate(0 0.390625)"/>
    <use xlink:href="#DejaVuSans-Oblique-56" transform="translate(63.818359 -16.015625) scale(0.7)"/>
    <use xlink:href="#DejaVuSans-3d" transform="translate(133.920898 0.390625)"/>
    <use xlink:href="#DejaVuSans-30" transform="translate(237.192383 0.390625)"/>
    <use xlink:href="#DejaVuSans-2e" transform="translate(300.81543 0.390625)"/>
    <use xlink:href="#DejaVuSans-32" transform="translate(327.102539 0.390625)"/>
    <use xlink:href="#DejaVuSans-39" transform="translate(388.975586 0.390625)"/>
   </g>
  </g>
  <g id="text_12">
   <!-- $\beta_A = 0.30$ -->
   <g transform="translate(116.415591 131.4809) rotate(-14.247758) scale(0.08 -0.08)">
    <defs>
     <path id="DejaVuSans-33" d="M 2597 2516 
Q 3050 2419 3304 2112 
Q 3559 1806 3559 1356 
Q 3559 666 3084 287 
Q 2609 -91 1734 -91 
Q 1441 -91 1130 -33 
Q 819 25 488 141 
L 488 750 
Q 750 597 1062 519 
Q 1375 441 1716 441 
Q 2309 441 2620 675 
Q 2931 909 2931 1356 
Q 2931 1769 2642 2001 
Q 2353 2234 1838 2234 
L 1294 2234 
L 1294 2753 
L 1863 2753 
Q 2328 2753 2575 2939 
Q 2822 3125 2822 3475 
Q 2822 3834 2567 4026 
Q 2313 4219 1838 4219 
Q 1578 4219 1281 4162 
Q 984 4106 628 3988 
L 628 4550 
Q 988 4650 1302 4700 
Q 1616 4750 1894 4750 
Q 2613 4750 3031 4423 
Q 3450 4097 3450 3541 
Q 3450 3153 3228 2886 
Q 3006 2619 2597 2516 
z
" transform="scale(0.015625)"/>
    </defs>
    <use xlink:href="#DejaVuSans-Oblique-3b2" transform="translate(0 0.390625)"/>
    <use xlink:href="#DejaVuSans-Oblique-41" transform="translate(63.818359 -16.015625) scale(0.7)"/>
    <use xlink:href="#DejaVuSans-3d" transform="translate(133.920898 0.390625)"/>
    <use xlink:href="#DejaVuSans-30" transform="translate(237.192383 0.390625)"/>
    <use xlink:href="#DejaVuSans-2e" transform="translate(300.81543 0.390625)"/>
    <use xlink:href="#DejaVuSans-33" transform="translate(332.602539 0.390625)"/>
    <use xlink:href="#DejaVuSans-30" transform="translate(396.225586 0.390625)"/>
   </g>
  </g>
 </g>
 <defs>
  <clipPath id="pbe189b020a">
   <rect x="20.409449" y="6.80315" width="146.267717" height="146.267717"/>
  </clipPath>
 </defs>
</svg>
